<?xml version="1.0" encoding="utf-8" ?>
<svg baseProfile="full" height="300mm" version="1.1" viewBox="0,0,200,300" width="200mm" xmlns="http://www.w3.org/2000/svg" xmlns:ev="http://www.w3.org/2001/xml-events" xmlns:xlink="http://www.w3.org/1999/xlink"><defs /><rect fill="#222222" height="300" width="200" x="0" y="0" /><text fill="#FFFFFF" style="font-size:12px; font-family:Arial; font-weight:bold;" x="10" y="20">Over 5km Runs</text><text fill="#FFFFFF" style="font-size:4px; font-family:Arial" x="10" y="280">Runner</text><text fill="#FFFFFF" style="font-size:9px; font-family:Arial" x="10" y="290">swtang</text><text fill="#FFFFFF" style="font-size:4px; font-family:Arial" x="65" y="280">SPECIAL TRACKS</text><rect fill="yellow" height="2.6" width="2.6" x="65" y="283" /><text fill="#FFFFFF" style="font-size:3px; font-family:Arial" x="70" y="285.5">Over 20.0 km</text><rect fill="red" height="2.6" width="2.6" x="65" y="287" /><text fill="#FFFFFF" style="font-size:3px; font-family:Arial" x="70" y="289.5">Over 40.0 km</text><text fill="#FFFFFF" style="font-size:4px; font-family:Arial" x="120" y="280">STATISTICS</text><text fill="#FFFFFF" style="font-size:3px; font-family:Arial" x="120" y="285">Number: 8</text><text fill="#FFFFFF" style="font-size:3px; font-family:Arial" x="120" y="290">Weekly: 1.3</text><text fill="#FFFFFF" style="font-size:3px; font-family:Arial" x="141" y="285">Total: 42.7 km</text><text fill="#FFFFFF" style="font-size:3px; font-family:Arial" x="141" y="290">Avg: 5.3 km</text><text fill="#FFFFFF" style="font-size:3px; font-family:Arial" x="167" y="285">Min: 5.0 km</text><text fill="#FFFFFF" style="font-size:3px; font-family:Arial" x="167" y="290">Max: 6.3 km</text><polyline fill="none" points="39.41046183742583,69.42610864783637 48.25353427417576,71.02373805083334 48.843072436749935,73.89946950576268 47.36922703124583,79.33140154369175 50.90645600669086,83.48522737575695 53.854146817699075,85.08285164623521 56.21229946799576,85.08285164623521 60.92860476858914,80.28997708577663 63.28675741888583,74.21899510617368 62.40245017409325,67.50895259412937 60.63383568637073,60.79889979260042 60.63383568637073,55.04741777270101 60.92860476858914,48.97640077350661 60.63383568637073,42.905375350499526 58.865221198648214,38.431982807582244 55.033223144710064,34.59764270228334 48.843072436749935,35.875756443711 43.53722897358239,40.02962352638133 41.1790763232857,43.86395887215622 38.231385512277484,46.7397081758827 36.16800194233656,47.69829085771926 33.220311131328344,48.017818371532485 33.51508021168411,48.65687332930975 35.57846378162503,49.934982964070514 35.873232861980796,49.615455590654165 37.05230918712914,51.53261948353611 40.58953816257417,55.366944750305265 40.29476908035576,59.84031998086721 41.768614487722516,63.9941643148195 44.126767138019204,68.46753072598949 47.36922703124583,71.9823154117912 46.779688868671656,77.41424982924946 47.07445794902742,82.20712753990665 50.90645600669086,85.40237643034197 54.738454062491655,85.40237643034197 60.33906660787761,82.84617750486359 63.876295579597354,76.77519907196984 64.46583374403417,71.34326386102475 62.99198833666742,65.59179570013657 61.2233738489449,58.88173995912075 61.51814293116331,53.44978253659792 61.51814293116331,47.69829085771926 60.33906660787761,42.58584746415727 59.15999028086662,38.11245459341444 55.32799222320318,34.91717117256485 50.90645600669086,33.0 43.831998055800796,34.59764270228334 37.936616430059075,39.71009542909451 36.16800194233656,43.22490321472287 34.39938745461404,47.69829085771926 35.283694699406624,52.1716739279218 36.16800194233656,57.6036329374183 39.115692757070065,62.39653234463185 40.29476908035576,68.78705672244541 42.35815265029669,73.57994388160296 42.65292173065245,78.05330049456097 42.35815265029669,82.20712753990665 47.36922703124583,83.80475227627903 50.31691784411669,84.76332683861256 56.801837630569935,82.52665253379382 60.33906660787761,78.37282579136081 63.28675741888583,74.8580462380778 63.28675741888583,68.46753072598949 62.40245017409325,61.7574793943204 62.40245017409325,54.72789077181369 61.51814293116331,47.378763320157304 59.454759361222386,40.34915159991942 53.26460865698755,36.834341505076736 48.843072436749935,35.875756443711 44.126767138019204,37.15386981214397 39.115692757070065,40.98820767737925 35.873232861980796,46.7397081758827 34.104618376120925,52.49120111530647 34.104618376120925,58.56221323879436 35.57846378162503,64.95274321595207 36.46277102455497,71.34326386102475 37.34707826934755,77.0947244623676 40.884307242929935,82.84617750486359 47.95876519382,84.4438020081725 55.32799222320318,84.12427715398371 60.92860476858914,82.20712753990665 63.58152649924159,75.49709727615118 62.99198833666742,67.18942650407553 62.697219256311655,60.79889979260042 62.10768109187484,54.40836374880746 61.81291201338172,47.378763320157304 60.92860476858914,41.946791619295254 58.57045211829245,36.834341505076736 52.67507049255073,33.9585856909398 46.779688868671656,34.91717117256485 41.1790763232857,40.668679651105776 39.41046183742583,45.78112528519705 37.34707826934755,51.852146717719734 36.75754010677338,58.24268649471924 38.231385512277484,62.07700588111766 39.41046183742583,65.91132190753706 39.41046183742583,69.42610864783637 38.820923674851656,71.34326386102475 38.820923674851656,74.21899510617368 40.884307242929935,79.97045192844234 45.60061254352331,84.12427715398371 51.49599416926503,86.04142592800781 57.0966067109257,85.40237643034197 62.10768109187484,79.97045192844234 63.876295579597354,71.66278964839876 63.28675741888583,63.9941643148195 62.40245017409325,58.24268649471924 62.40245017409325,51.21309222676791 61.2233738489449,44.503014435991645 60.0442975256592,39.071039164904505 56.21229946799576,34.59764270228334 49.43261059932411,34.2781142082531 42.947690811008215,39.071039164904505 39.70523091778159,41.946791619295254 39.41046183742583,48.65687332930975 40.58953816257417,52.49120111530647 40.58953816257417,54.72789077181369 40.0,58.24268649471924 38.52615459263325,64.31369063816965 38.52615459263325,71.66278964839876 40.29476908035576,78.05330049456097 44.126767138019204,84.76332683861256 52.08553232997656,87.0 58.57045211829245,84.12427715398371 62.99198833666742,77.0947244623676 63.58152649924159,68.46753072598949 62.99198833666742,60.479373211972415 61.81291201338172,53.44978253659792 61.81291201338172,48.65687332930975 61.2233738489449,46.42018056917004 60.0442975256592,44.18348666536622 58.57045211829245,40.98820767737925 56.21229946799576,38.11245459341444 53.55937773734331,35.875756443711 52.08553232997656,36.19528482132591 50.31691784411669,36.51481317472644 46.48491978645325,37.79292635596357 40.29476908035576,41.946791619295254 38.820923674851656,46.10065293847583 37.936616430059075,51.53261948353611 37.64184734970331,58.56221323879436 38.231385512277484,65.27226947015151 39.41046183742583,72.30184115306474 40.884307242929935,79.33140154369175 46.190150706097484,84.12427715398371 51.790763249620795,85.72190119070001 59.15999028086662,83.48522737575695 62.99198833666742,76.45567365782335 63.28675741888583,67.8284786613658 62.40245017409325,64.31369063816965 61.2233738489449,61.437952883541584 61.81291201338172,57.28410612279549 61.51814293116331,54.40836374880746 61.81291201338172,51.53261948353611 62.40245017409325,47.378763320157304 61.81291201338172,43.54443105543032 59.749528443440795,39.71009542909451 55.033223144710064,36.51481317472644 48.25353427417576,34.91717117256485 40.58953816257417,38.75151099753566 36.46277102455497,44.18348666536622 36.75754010677338,52.49120111530647 40.29476908035576,60.479373211972415 41.47384540550411,68.46753072598949 41.1790763232857,74.8580462380778 42.06338356807828,78.37282579136081 41.768614487722516,79.33140154369175 42.65292173065245,82.52665253379382 45.89538162574172,84.76332683861256 50.02214876189828,84.12427715398371 53.55937773734331,83.48522737575695 57.98091395571828,82.20712753990665 60.0442975256592,79.97045192844234 59.15999028086662,77.73377517377958 61.51814293116331,72.94089256389998 60.92860476858914,68.46753072598949 61.81291201338172,64.63321693916805 62.99198833666742,59.520793329924345 60.92860476858914,52.1716739279218 60.63383568637073,42.905375350499526 57.68614487349987,38.11245459341444 54.738454062491655,34.59764270228334 52.08553232997656,34.59764270228334 51.20122508704662,37.15386981214397 45.01107438094914,37.47339809616096 41.47384540550411,39.71009542909451 41.1790763232857,42.58584746415727 41.47384540550411,44.18348666536622 41.47384540550411,47.378763320157304 39.70523091778159,51.53261948353611 39.70523091778159,54.72789077181369 40.0,57.92315972736105 39.41046183742583,64.63321693916805 38.52615459263325,70.38468636013567 37.64184734970331,76.1361482203938 40.58953816257417,81.56807748158462 45.89538162574172,83.80475227627903 60.63383568637073,79.97045192844234 62.40245017409325,76.1361482203938 63.28675741888583,71.66278964839876 63.28675741888583,63.03558520320803 63.58152649924159,55.68647170369513 63.28675741888583,48.65687332930975 60.0442975256592,40.668679651105776 55.32799222320318,35.875756443711 50.02214876189828,34.91717117256485 42.06338356807828,37.15386981214397 39.70523091778159,41.30773568130098 38.52615459263325,44.18348666536622 38.820923674851656,47.05923576047644 39.115692757070065,50.25451031513512 38.52615459263325,53.13025541906245 38.820923674851656,55.68647170369513 38.52615459263325,58.88173995912075 38.52615459263325,61.437952883541584 39.41046183742583,63.67463796725497 39.70523091778159,68.46753072598949 40.0,71.9823154117912 39.41046183742583,75.49709727615118 39.70523091778159,78.69235106604174 43.53722897358239,83.80475227627903 50.90645600669086,85.72190119070001 57.39137579314411,82.84617750486359 61.81291201338172,73.57994388160296 62.99198833666742,65.27226947015151 63.28675741888583,58.24268649471924 62.697219256311655,50.57403764198534 61.51814293116331,42.905375350499526 58.57045211829245,38.431982807582244 55.32799222320318,36.51481317472644 52.96983957476914,35.875756443711 49.43261059932411,34.2781142082531 45.01107438094914,33.9585856909398 42.06338356807828,36.834341505076736 39.70523091778159,40.668679651105776 38.820923674851656,43.86395887215622 40.0,53.76930963038467 41.47384540550411,58.88173995912075 41.768614487722516,61.437952883541584 41.768614487722516,67.18942650407553 40.0,76.45567365782335 43.831998055800796,82.84617750486359 51.49599416926503,85.40237643034197 57.98091395571828,83.16570245171897 61.51814293116331,79.33140154369175 62.40245017409325,76.45567365782335 62.697219256311655,71.9823154117912 62.40245017409325,68.46753072598949 61.81291201338172,64.63321693916805 61.81291201338172,60.79889979260042 61.81291201338172,57.28410612279549 61.2233738489449,54.08883670112118 60.0442975256592,50.89356494578533 59.454759361222386,47.378763320157304 59.15999028086662,44.82254218356684 58.865221198648214,41.30773568130098 57.0966067109257,38.431982807582244 54.44368498027325,36.834341505076736 51.20122508704662,36.19528482132591 47.36922703124583,36.51481317472644 43.53722897358239,37.47339809616096 40.58953816257417,40.34915159991942 38.231385512277484,42.905375350499526 38.52615459263325,46.7397081758827 39.115692757070065,51.852146717719734 39.41046183742583,60.79889979260042 38.231385512277484,70.38468636013567 39.41046183742583,75.81662276014686 41.1790763232857,78.37282579136081 42.947690811008215,80.929027330596 44.126767138019204,82.52665253379382 47.66399611160159,83.80475227627903 51.20122508704662,84.4438020081725 54.44368498027325,83.80475227627903 58.27568303793669,81.56807748158462 60.63383568637073,79.01187631650828 62.10768109187484,75.81662276014686 62.10768109187484,67.18942650407553 61.81291201338172,58.56221323879436 61.51814293116331,49.615455590654165 61.2233738489449,44.82254218356684 60.33906660787761,40.668679651105776 57.68614487349987,38.11245459341444 55.91753038764,37.15386981214397 52.38030141219497,35.875756443711 47.66399611160159,35.55622804327868 45.30584346316755,38.11245459341444 42.35815265029669,40.02962352638133 40.884307242929935,42.26631955290213 38.52615459263325,44.82254218356684 37.34707826934755,48.33734586182982 37.34707826934755,51.21309222676791 36.75754010677338,50.89356494578533 33.809849293902516,51.53261948353611 28.209236750379205,53.44978253659792 27.619698587805033,55.04741777270101 25.556315019726753,47.69829085771926 15.534166255965829,46.10065293847583" stroke="#4DD2FF" stroke-linecap="round" stroke-linejoin="round" stroke-width="0.5"><title>2025-05-26 5.3km</title><desc>9223370288580098525</desc></polyline><polyline fill="none" points="144.05888983234763,45.96005394216627 144.05888983234763,46.68005593912676 146.71574152633548,53.52006967412308 148.0441673733294,62.16007345961407 148.70838029682636,71.16006130166352 148.0441673733294,78.36003974592313 153.0257642995566,83.04002009658143 156.67893538065255,84.8400113559328 160.0,85.20000952947885 162.98895815573633,85.56000767601654 166.64212923683226,85.20000952947885 172.28793908655643,79.44003560580313 173.94847139529884,71.16006130166352 173.94847139529884,62.52007328905165 173.94847139529884,53.880070134066045 173.616364935413,45.60005290294066 170.9595132395625,37.320021766237915 165.97791631147265,33.72000389127061 159.3357870746404,33.36000195844099 153.0257642995566,35.52001315634698 149.70469968393445,40.56003560638055 148.70838029682636,46.3200549534522 147.71206091158092,52.080067571718246 148.70838029682636,58.92007381469011 148.70838029682636,67.20006867451593 147.71206091158092,75.12005074648187 151.03312552906573,80.5200312291272 162.65685169398785,85.20000952947885 170.9595132395625,80.88002971746027 173.94847139529884,74.04005394037813 174.94479078054428,66.84006918687373 174.94479078054428,59.28007388021797 174.28057785890996,51.000065717846155 173.616364935413,43.80004731705412 171.291619701311,38.76002818066627 168.30266154557467,34.80000952910632 161.99263876862824,33.36000195844099 154.68629660829902,35.16001135669649 149.70469968393445,39.84003271535039 147.71206091158092,45.24005183856934 149.0404867567122,52.080067571718246 164.31738400273025,66.48006967408583 149.70469968393445,61.08007381437346 149.70469968393445,64.68007171107456 148.70838029682636,67.92006757063791 148.0441673733294,75.12005074648187 150.36891260556877,83.4000184009783 160.0,86.28000389132649 167.6384486220777,83.76001667883247 173.28425847366452,77.64004237437621 174.28057785890996,71.88005961896852 173.94847139529884,66.48006967408583 173.94847139529884,60.360073919873685 173.28425847366452,52.44006813596934 172.9521520100534,44.88005074718967 171.291619701311,40.200034173671156 168.96687446720898,36.6000184006989 165.64580984972417,34.44000767590478 162.98895815573633,33.72000389127061 157.01104184240103,35.16001135669649 150.70101906731725,40.200034173671156 148.0441673733294,47.04005689872429 149.0404867567122,55.68007203983143 149.37259322032332,64.32007203949615 148.70838029682636,71.88005961896852 148.0441673733294,76.9200448980555 152.3615513779223,84.8400113559328 159.66789353638887,86.28000389132649 167.6384486220777,83.76001667883247 172.9521520100534,76.5600461200811 174.6126843187958,69.72006435040385 174.6126843187958,63.24007286736742 173.94847139529884,54.96007135650143 174.6126843187958,47.04005689872429 173.28425847366452,39.84003271535039 166.31002277322114,34.44000767590478 161.99263876862824,33.72000389127061 158.00736122764647,34.08000579662621 154.35419014841318,35.88001493131742 151.03312552906573,38.400026615709066 149.0404867567122,42.36004237551242 149.0404867567122,45.96005394216627 148.37627383507788,48.840061301831156 148.37627383507788,55.32007171213627 148.70838029682636,64.68007171107456 149.0404867567122,73.68005495285615 149.70469968393445,76.9200448980555 152.02944491431117,85.56000767601654 162.32474523223937,86.28000389132649 170.62740677781403,82.32002340862527 173.28425847366452,78.00004107365385 174.28057785890996,74.76005183765665 174.6126843187958,71.16006130166352 174.94479078054428,67.20006867451593 174.6126843187958,63.24007286736742 174.28057785890996,58.92007381469011 175.2768972441554,53.16006918763742 174.6126843187958,44.16004848713055 170.9595132395625,37.68002340896055 165.3137033879757,34.08000579662621 156.67893538065255,34.08000579662621 150.36891260556877,39.12002971768379 148.0441673733294,45.60005290294066 149.0404867567122,52.44006813596934 149.0404867567122,59.64007391873747 149.0404867567122,67.20006867451593 148.0441673733294,73.32005593879148 146.05152860283852,79.80003417283297 151.3652319908142,84.12001493154094 158.00736122764647,85.9200057964772 163.32106461562216,85.56000767601654 167.97055508196354,83.4000184009783 171.62372616305947,80.88002971746027 173.616364935413,77.64004237437621 174.28057785890996,74.4000529027544 174.6126843187958,69.36006504716352 174.28057785890996,60.000073932576925 174.6126843187958,51.000065717846155 173.616364935413,42.36004237551242 170.9595132395625,38.400026615709066 168.30266154557467,35.88001493131742 164.64949046447873,34.80000952910632 160.0,34.44000767590478 155.35050953365862,35.52001315634698 152.3615513779223,37.68002340896055 149.70469968393445,41.280038392636925 149.0404867567122,45.24005183856934 149.0404867567122,49.200062103103846 149.37259322032332,52.800068675074726 149.0404867567122,56.40007261838764 148.70838029682636,60.72007387969643 149.37259322032332,66.1200701338239 149.0404867567122,70.44006287772208 148.70838029682636,72.60005783103406 146.38363506272435,77.64004237437621 148.70838029682636,81.60002661589533 154.02208368480206,84.8400113559328 162.32474523223937,84.8400113559328 170.62740677781403,81.24002817925066 173.94847139529884,75.8400484859012 174.6126843187958,71.88005961896852 164.9815969262272,65.04007135657594 174.28057785890996,63.60007261764258 174.28057785890996,59.28007388021797 174.6126843187958,54.24007056839764 173.94847139529884,45.24005183856934 170.9595132395625,37.68002340896055 164.31738400273025,33.72000389127061 156.67893538065255,34.08000579662621 149.70469968393445,38.400026615709066 148.37627383507788,44.16004848713055 149.37259322032332,51.72006697952747 148.70838029682636,59.64007391873747 148.70838029682636,69.72006435040385 148.37627383507788,75.12005074648187 148.70838029682636,79.44003560580313 149.37259322032332,81.24002817925066 152.69365783780813,83.76001667883247 158.67157415114343,86.28000389132649 163.98527754098177,85.9200057964772 167.97055508196354,84.12001493154094 171.62372616305947,81.24002817925066 172.9521520100534,78.00004107365385 174.28057785890996,74.4000529027544 174.6126843187958,70.44006287772208 174.6126843187958,67.20006867451593 175.2768972441554,63.60007261764258 175.2768972441554,60.000073932576925 175.2768972441554,54.96007135650143 175.2768972441554,51.000065717846155 174.94479078054428,46.68005593912676 174.28057785890996,42.36004237551242 171.95583262480795,38.76002818066627 168.96687446720898,35.52001315634698 163.98527754098177,34.08000579662621 154.68629660829902,35.16001135669649 149.0404867567122,41.280038392636925 148.70838029682636,47.40005783177912 148.0441673733294,54.60007097525522 147.37995444983244,58.92007381469011 148.37627383507788,61.80007360363379 149.0404867567122,65.40007097506896 148.70838029682636,70.44006287772208 148.0441673733294,73.32005593879148 147.37995444983244,77.2800436494872 149.0404867567122,80.88002971746027 152.69365783780813,84.12001493154094 157.675254765898,86.28000389132649 162.98895815573633,86.6400019582361 167.97055508196354,84.12001493154094 170.9595132395625,81.96002502553165 172.9521520100534,78.72003839211538 174.28057785890996,75.48004962969571 174.94479078054428,71.88005961896852 174.94479078054428,68.28006697958335 175.60900370404124,65.40007097506896 175.60900370404124,61.08007381437346 174.94479078054428,51.000065717846155 173.616364935413,41.280038392636925 167.97055508196354,34.80000952910632 159.66789353638887,33.36000195844099 152.02944491431117,36.6000184006989 148.0441673733294,43.44004612136632 147.71206091158092,49.92006362834945 147.71206091158092,54.96007135650143 147.71206091158092,58.20007360400632 148.70838029682636,62.52007328905165 148.70838029682636,67.5600681360811 148.37627383507788,71.5200604731217 148.0441673733294,76.20004731649533 149.0404867567122,80.5200312291272 151.03312552906573,83.4000184009783 154.02208368480206,84.8400113559328 158.67157415114343,86.6400019582361 162.98895815573633,86.6400019582361 167.97055508196354,84.48001315677539 171.291619701311,81.24002817925066 173.616364935413,78.72003839211538 175.2768972441554,75.48004962969571 176.60532309114933,71.88005961896852 176.60532309114933,67.92006757063791 175.94111016765237,63.60007261764258 175.60900370404124,58.92007381469011 175.60900370404124,54.24007056839764 175.60900370404124,50.280064350925386 174.94479078054428,45.60005290294066 173.94847139529884,41.64003974664956 171.95583262480795,38.400026615709066 168.96687446720898,35.52001315634698 164.9815969262272,33.72000389127061 160.33210646174848,33.36000195844099 156.34682891890407,34.08000579662621 153.35787076316774,36.6000184006989 150.0368061438203,40.200034173671156 148.37627383507788,43.80004731705412 148.37627383507788,48.12005962012336 147.71206091158092,52.800068675074726 148.37627383507788,57.12007309123874 148.70838029682636,61.440073722973466 148.70838029682636,68.64006636245176 147.04784798808396,77.64004237437621 148.70838029682636,81.24002817925066 155.01840307191014,84.8400113559328 159.66789353638887,86.6400019582361 165.3137033879757,85.56000767601654 169.2989809308201,83.4000184009783 172.28793908655643,80.16003271378577 174.94479078054428,75.48004962969571 176.2732166275382,65.7600705679506 175.60900370404124,55.68007203983143 175.2768972441554,45.60005290294066 172.28793908655643,38.400026615709066 168.96687446720898,35.16001135669649 165.64580984972417,33.72000389127061 160.99631938524544,33.36000195844099 156.67893538065255,34.08000579662621 153.35787076316774,35.88001493131742 151.03312552906573,39.84003271535039 148.70838029682636,43.44004612136632 148.0441673733294,49.200062103103846 148.0441673733294,60.360073919873685 147.37995444983244,70.80006210273132 146.05152860283852,77.2800436494872 147.04784798808396,80.88002971746027 152.3615513779223,83.76001667883247 157.675254765898,85.9200057964772 162.65685169398785,86.6400019582361 167.30634215846658,84.48001315677539 171.291619701311,81.24002817925066 174.94479078054428,75.12005074648187 175.60900370404124,66.1200701338239 175.2768972441554,60.72007387969643 175.60900370404124,56.760072868317366 174.94479078054428,52.800068675074726 174.28057785890996,49.56006287923083 174.28057785890996,45.24005183856934 172.9521520100534,40.92003701347858 170.9595132395625,37.320021766237915 167.6384486220777,34.80000952910632 162.65685169398785,33.72000389127061 158.33946768939495,33.72000389127061 154.35419014841318,35.52001315634698 151.6973384525627,38.040025025606155 149.70469968393445,40.92003701347858 148.70838029682636,44.52004963112995 147.71206091158092,48.12005962012336 147.37995444983244,53.880070134066045 147.71206091158092,57.12007309123874 147.71206091158092,60.72007387969643 147.37995444983244,66.1200701338239 147.71206091158092,70.0800636280328 147.71206091158092,74.4000529027544 148.70838029682636,77.2800436494872 148.70838029682636,80.88002971746027 152.69365783780813,83.76001667883247 157.675254765898,86.28000389132649 162.65685169398785,87.0 167.6384486220777,84.8400113559328 173.616364935413,78.36003974592313 175.60900370404124,70.44006287772208 176.2732166275382,62.88007309148088 175.60900370404124,55.68007203983143 175.60900370404124,46.68005593912676 173.28425847366452,40.56003560638055 170.9595132395625,36.960020096972585 168.30266154557467,34.80000952910632 164.64949046447873,33.36000195844099 160.99631938524544,33.36000195844099 157.01104184240103,34.08000579662621 153.0257642995566,35.88001493131742 150.36891260556877,39.12002971768379 148.70838029682636,42.36004237551242 148.70838029682636,46.3200549534522 148.37627383507788,51.72006697952747 148.37627383507788,55.68007203983143 148.0441673733294,60.000073932576925 148.0441673733294,65.04007135657594 148.0441673733294,70.0800636280328 147.71206091158092,73.68005495285615 147.37995444983244,77.2800436494872 150.36891260556877,81.24002817925066 154.02208368480206,84.48001315677539 159.00368061475456,86.28000389132649 162.98895815573633,86.6400019582361 167.97055508196354,84.8400113559328 171.291619701311,81.60002661589533 173.616364935413,78.00004107365385 174.6126843187958,74.76005183765665 175.2768972441554,71.16006130166352 175.60900370404124,67.20006867451593 174.94479078054428,63.24007286736742 174.6126843187958,58.20007360400632 173.94847139529884,53.52006967412308 173.94847139529884,49.200062103103846 173.616364935413,44.16004848713055 172.28793908655643,40.200034173671156 169.96319385245442,36.6000184006989 166.64212923683226,34.44000767590478 162.98895815573633,33.72000389127061 158.33946768939495,34.08000579662621 154.68629660829902,35.52001315634698 152.02944491431117,38.040025025606155 150.36891260556877,41.64003974664956 149.37259322032332,45.96005394216627 149.0404867567122,49.200062103103846 148.0441673733294,53.880070134066045 148.0441673733294,63.60007261764258 147.04784798808396,76.20004731649533 159.3357870746404,84.8400113559328 170.9595132395625,82.32002340862527 174.28057785890996,76.20004731649533 175.2768972441554,72.96005689864978 175.60900370404124,68.64006636245176 175.2768972441554,64.68007171107456 175.2768972441554,60.360073919873685 174.94479078054428,56.40007261838764 174.94479078054428,51.72006697952747 174.6126843187958,47.04005689872429 173.94847139529884,42.72004364989698 171.95583262480795,38.76002818066627 168.63476800732315,35.88001493131742 164.64949046447873,34.08000579662621 160.33210646174848,33.72000389127061 156.34682891890407,34.80000952910632 152.69365783780813,36.960020096972585 149.37259322032332,39.84003271535039 147.71206091158092,43.80004731705412" stroke="#4DD2FF" stroke-linecap="round" stroke-linejoin="round" stroke-width="0.5"><title>2025-05-22 6.3km</title><desc>9223370288928506818</desc></polyline><polyline fill="none" points="24.81939564086497,105.14206990692765 31.599083023145795,111.53261948353611 32.48339007422328,116.0059986342676 33.36769712343812,120.15984660736285 33.07292810641229,124.63321693893522 31.30431400798261,129.1065826965496 29.535699907690287,133.26041823485866 28.94616187363863,136.77519907196984 28.651392858475447,140.60950222006068 31.89385204203427,144.44380200770684 37.1996943410486,146.3609506424982 43.68461270816624,147.0 49.2852240242064,142.84617750439793 53.41199025698006,139.650926747825 56.06491140834987,136.13614822016098 57.24398747459054,130.70421221642755 57.24398747459054,126.23084809188731 57.24398747459054,122.07700588111766 56.94921845756471,117.60363293718547 56.65444944053888,113.44978253683075 56.3596804253757,109.29592819348909 56.06491140834987,105.14206990692765 54.29629730805755,100.98820767784491 52.52768320776522,98.43198280758224 49.87476205639541,95.55622804374434 44.56891975738108,94.2781142082531 39.557846473529935,93.95858569140546 34.84154220670462,96.19528482109308 31.89385204203427,100.66867965064012 22.166474491357803,105.46159760747105 27.76708580739796,112.81072827917524 26.588009741157293,117.60363293718547 27.17754777520895,122.39653234533034 26.588009741157293,127.50895259366371 26.293240724131465,132.3018411528319 28.651392858475447,137.0947244623676 31.89385204203427,140.92902733036317 36.31538729183376,143.80475227697752 41.62122959084809,144.12427715351805 48.10614795796573,143.1657024519518 52.82245222479105,140.2899770855438 55.47537337616086,136.45567365805618 58.128294525668025,130.70421221642755 58.128294525668025,125.91132190776989 57.53875649161637,121.43795288354158 56.94921845756471,116.6450524253305 56.06491140834987,111.8521467174869 56.06491140834987,107.37876332062297 55.18060435727239,103.22490321425721 54.29629730805755,99.71009542886168 51.34860714152455,96.19528482109308 47.516609923914075,94.2781142082531 43.095074674114585,93.31952858669683 37.49446335807443,94.91717117233202 32.48339007422328,98.43198280758224 28.94616187363863,102.26631955290213 26.588009741157293,106.73970817658119 25.70370269007981,110.89356494578533 25.408933674916625,116.0059986342676 27.472316790372133,121.7574793943204 27.76708580739796,126.23084809188731 27.472316790372133,131.34326386195607 29.24093089066446,136.13614822016098 32.48339007422328,140.60950222006068 36.90492532402277,143.1657024519518 42.50553664006293,143.1657024519518 48.10614795796573,141.56807748111896 52.52768320776522,139.01187631627545 55.77014239132404,135.49709727591835 56.94921845756471,130.38468635967 57.8335255086422,124.63321693893522 57.24398747459054,118.56221323902719 56.94921845756471,112.81072827917524 55.77014239132404,106.73970817658119 54.591066325083375,100.98820767784491 52.23291419073939,96.19528482109308 47.8113789409399,93.6390571508091 40.7369225397706,93.31952858669683 35.7258492577821,95.55622804374434 30.420006956905127,101.62726366240531 28.061854822561145,106.42018056940287 26.88277875818312,110.57403764221817 26.293240724131465,114.72789077204652 26.588009741157293,119.8403199808672 28.35662384144962,123.9941643148195 27.472316790372133,129.1065826965496 26.588009741157293,133.57994388206862 29.24093089066446,138.69235106557608 34.84154220670462,142.52665253332816 39.557846473529935,144.7633268381469 45.74799582362175,144.12427715351805 51.053838124498725,141.56807748111896 54.29629730805755,138.37282579112798 56.65444944053888,132.94089256366715 56.65444944053888,126.8699003891088 56.94921845756471,122.07700588111766 56.65444944053888,116.96457928535528 55.77014239132404,112.49120111507364 55.77014239132404,108.01781837199815 55.47537337616086,102.58584746392444 54.00152829103172,98.43198280758224 51.34860714152455,95.2366996195633 47.516609923914075,93.0 42.50553664006293,93.6390571508091 38.37877040728927,95.87575644394383 34.54677319154143,99.07103916467167 31.30431400798261,103.86395887192339 28.651392858475447,109.29592819348909 27.17754777520895,114.72789077204652 26.293240724131465,120.15984660736285 26.88277875818312,125.27226946991868 25.70370269007981,130.0651604786981 26.293240724131465,134.85804623761214 29.83046892285347,139.97045192844234 35.43108024075627,142.52665253332816 43.095074674114585,143.80475227697752 49.87476205639541,141.56807748111896 54.29629730805755,137.0947244623676 56.3596804253757,132.3018411528319 56.94921845756471,125.91132190776989 56.94921845756471,121.11842634924687 56.65444944053888,116.6450524253305 56.3596804253757,112.17167392838746 56.06491140834987,107.05923575977795 55.47537337616086,102.58584746392444 53.706759275868535,98.75151099753566 50.7590691074729,95.2366996195633 44.56891975738108,94.2781142082531 40.14738450758159,94.59764270228334 37.1996943410486,95.55622804374434 35.43108024075627,97.47339809616096 34.54677319154143,100.02962352638133 33.66246614232659,101.62726366240531 31.009544990956783,103.22490321425721 29.535699907690287,106.73970817658119 29.83046892285347,110.25451031536795 32.18862105719745,112.81072827917524 33.95723515748978,116.0059986342676 33.36769712343812,120.15984660736285 32.48339007422328,124.31369063816965 31.009544990956783,128.7870567231439 29.83046892285347,132.6213668701239 31.30431400798261,135.49709727591835 33.07292810641229,137.7337751740124 36.90492532402277,139.3314015432261 40.7369225397706,142.52665253332816 43.97938172519207,143.48522737575695 48.10614795796573,143.1657024519518 52.23291419073939,139.97045192844234 55.18060435727239,135.17757176794112 55.77014239132404,128.14800470578484 55.77014239132404,121.43795288354158 56.06491140834987,116.0059986342676 55.77014239132404,109.61545559065416 55.18060435727239,103.22490321425721 53.41199025698006,98.43198280758224 48.40091697499156,93.95858569140546 43.095074674114585,94.91717117233202 36.90492532402277,96.51481317449361 31.89385204203427,99.71009542886168 28.651392858475447,103.86395887192339 28.651392858475447,109.93498296523467 28.35662384144962,115.6864717034623 29.24093089066446,120.79889979236759 31.599083023145795,126.23084809188731 31.009544990956783,131.98231541272253 31.89385204203427,136.45567365805618 34.84154220670462,140.60950222006068 38.673539424315095,142.84617750439793 44.27415074035525,142.84617750439793 50.169531075283885,140.60950222006068 53.706759275868535,138.0533004940953 55.47537337616086,135.81662275991403 56.65444944053888,134.53852068353444 56.65444944053888,133.89946950576268 56.65444944053888,130.0651604786981 55.77014239132404,123.6746379667893 55.47537337616086,120.15984660736285 55.77014239132404,116.96457928535528 55.18060435727239,114.08883670065552 55.18060435727239,110.89356494578533 54.8858353421092,108.01781837199815 55.18060435727239,104.50301443692297 54.591066325083375,102.58584746392444 52.82245222479105,100.66867965064012 51.053838124498725,98.11245459341444 48.69568599201739,96.19528482109308 46.33753385767341,95.87575644394383 43.095074674114585,95.87575644394383 39.85261549241841,96.51481317449361 36.90492532402277,97.47339809616096 33.66246614232659,100.34915160061792 31.89385204203427,105.46159760747105 29.83046892285347,110.89356494578533 29.535699907690287,116.6450524253305 28.94616187363863,121.43795288354158 28.35662384144962,125.59179570083506 28.061854822561145,129.74563457421027 28.35662384144962,134.85804623761214 31.30431400798261,139.650926747825 36.61015630699694,141.88760252250358 42.8003056589514,142.20712753967382 49.57999304123223,140.92902733036317 54.00152829103172,138.37282579112798 56.3596804253757,131.0237380506005 56.06491140834987,124.63321693893522 55.47537337616086,118.24268649425358 55.77014239132404,112.17167392838746 55.47537337616086,105.78112528519705 54.00152829103172,99.07103916467167 51.34860714152455,95.55622804374434 46.92707189172506,93.6390571508091 40.44215352460742,93.31952858669683 34.54677319154143,96.83434150507674 31.89385204203427,99.39056730899028 31.89385204203427,101.62726366240531 31.30431400798261,105.14206990692765 31.599083023145795,108.33734586182982 31.009544990956783,110.89356494578533 31.599083023145795,113.76930963038467 32.77815909124911,116.96457928535528 32.77815909124911,119.8403199808672 33.07292810641229,122.71605878602713 32.48339007422328,126.55037425179034 31.89385204203427,129.42610864783637 32.18862105719745,132.94089256366715 33.07292810641229,135.49709727591835 34.54677319154143,138.0533004940953 37.49446335807443,141.24855241761543 40.44215352460742,142.84617750439793 45.15845779143274,143.48522737575695 49.2852240242064,141.88760252250358 52.23291419073939,139.3314015432261 54.591066325083375,136.13614822016098 55.77014239132404,132.3018411528319 55.77014239132404,126.8699003891088 55.47537337616086,122.07700588111766 54.591066325083375,115.6864717034623 54.591066325083375,110.25451031536795 54.591066325083375,103.54443105543032 51.93814517557621,98.11245459341444 49.57999304123223,95.55622804374434 45.15845779143274,94.2781142082531 39.85261549241841,95.55622804374434 36.31538729183376,99.39056730899028 34.54677319154143,101.30773568130098 33.66246614232659,104.18348666606471 34.252004174515605,105.78112528519705 35.7258492577821,107.6982908572536 35.43108024075627,111.21309222676791 35.43108024075627,113.44978253683075 35.136311223730445,116.32552554178983 33.66246614232659,120.47937321150675 30.714775973930955,124.31369063816965 27.76708580739796,129.42610864783637 27.17754777520895,132.94089256366715 31.599083023145795,138.37282579112798 38.673539424315095,142.52665253332816 46.33753385767341,142.52665253332816 52.82245222479105,138.69235106557608 55.77014239132404,134.53852068353444 56.65444944053888,128.14800470578484 56.94921845756471,122.07700588111766 56.3596804253757,117.60363293718547 55.77014239132404,111.21309222676791 55.77014239132404,105.14206990692765 54.00152829103172,99.39056730899028 48.99045500904322,94.91717117233202 43.095074674114585,93.95858569140546 36.02061827480793,95.87575644394383 31.30431400798261,100.66867965064012 30.420006956905127,106.73970817658119 31.599083023145795,112.17167392838746 30.420006956905127,117.92315972736105 30.125237941741943,123.6746379667893 27.76708580739796,129.74563457421027 28.94616187363863,135.17757176794112 32.18862105719745,138.69235106557608 35.136311223730445,143.48522737575695 38.08400139026344,146.3609506424982 43.38984369114041,145.40237643010914 49.57999304123223,141.24855241761543 52.82245222479105,138.0533004940953 54.591066325083375,134.21899510663934 55.18060435727239,130.38468635967 55.77014239132404,127.18942650360987 55.77014239132404,123.03558520274237 55.77014239132404,118.88173995888792 55.47537337616086,115.6864717034623 55.77014239132404,111.53261948353611 55.47537337616086,107.6982908572536 55.47537337616086,104.18348666606471 54.29629730805755,100.66867965064012 52.82245222479105,97.47339809616096 49.57999304123223,95.2366996195633 45.74799582362175,95.2366996195633 42.210767624899745,96.19528482109308 38.37877040728927,97.47339809616096 35.7258492577821,100.02962352638133 35.43108024075627,103.54443105543032 34.84154220670462,106.10065293870866 34.54677319154143,109.29592819348909 33.07292810641229,111.8521467174869 31.599083023145795,114.40836374810897 31.30431400798261,118.56221323902719 30.714775973930955,121.7574793943204 31.009544990956783,125.59179570083506 30.714775973930955,128.7870567231439 31.30431400798261,133.26041823485866 33.07292810641229,137.0947244623676 36.02061827480793,140.60950222006068 38.08400139026344,143.1657024519518 41.62122959084809,145.40237643010914 46.33753385767341,146.04142592824064 50.7590691074729,144.7633268381469 53.11722124181688,142.20712753967382 54.29629730805755,136.45567365805618 55.47537337616086,130.70421221642755 55.77014239132404,126.8699003891088 56.06491140834987,123.03558520274237 55.47537337616086,119.52079333039 54.8858353421092,116.32552554178983 54.8858353421092,112.49120111507364 54.29629730805755,108.97640077304095 54.8858353421092,105.46159760747105 54.8858353421092,101.62726366240531 53.706759275868535,98.43198280758224 50.169531075283885,95.87575644394383 47.516609923914075,95.2366996195633 44.56891975738108,94.59764270228334 40.44215352460742,95.55622804374434 38.37877040728927,97.79292635642923 37.789232375100255,100.34915160061792 35.7258492577821,102.90537535073236" stroke="#4DD2FF" stroke-linecap="round" stroke-linejoin="round" stroke-width="0.5"><title>2025-04-28 5.4km</title><desc>9223370291002762543</desc></polyline><polyline fill="none" points="160.4789995662868,103.38466315669939 152.49567348696291,126.92314875777811 151.85700740106404,138.00004271650687 152.49567348696291,138.69234772957861 151.5376743581146,140.0769574525766 151.85700740106404,142.15387127827853 153.45367261767387,143.5384799898602 155.68900391831994,145.61539229936898 157.28566913492978,146.30769620044157 159.84033348038793,146.65384811349213 163.0336639098823,147.0 165.26899521239102,147.0 168.46232564374804,145.2692403108813 172.61365520209074,143.88463210500777 176.76498476415873,139.0385001981631 154.09233870357275,122.76930685061961 155.3696708753705,127.96160866506398 154.09233870357275,132.11544602364302 153.7730056606233,137.3077376014553 154.73100478947163,140.76926216157153 156.32767000421882,144.57693625846878 162.71433086693287,145.2692403108813 167.50432651489973,144.23078419361264 171.33632303215563,141.1154144788161 175.1683195475489,138.3461952349171 177.4036508500576,134.53851613448933 176.4456517212093,130.38468089979142 175.8069856353104,125.19238173915073 176.76498476415873,120.69238453172147 175.8069856353104,115.84622891666368 175.8069856353104,111.00006834650412 175.8069856353104,106.50005766795948 175.48765259049833,101.65388754336163 172.2943221591413,97.15386799210683 166.22699434123933,94.38462306885049 160.4789995662868,93.69231158448383 155.05033783242106,98.8846452482976 152.17634044587612,104.42312822118402 152.17634044587612,109.61545013124123 152.17634044587612,116.53853716468439 152.17634044587612,122.42315319366753 149.94100914150476,127.6154553880915 148.66367697156966,132.11544602364302 148.66367697156966,136.61543238628656 150.26034218631685,140.76926216157153 156.00833696126938,144.23078419361264 162.075664781034,145.96154426271096 168.14299259893596,145.2692403108813 173.25232128985226,143.19232785049826 176.76498476415873,139.3846526411362 177.72298389300704,134.88466890575364 177.4036508500576,129.00006834603846 176.76498476415873,124.15392122371122 176.76498476415873,118.96161523740739 176.4456517212093,114.46161211561412 176.12631867825985,109.96160472370684 176.4456517212093,104.42312822118402 175.8069856353104,99.57695597410202 172.93298824690282,96.11540133599192 169.10099172964692,94.03846733924001 164.63032912649214,93.3461558050476 159.2016673926264,94.73077877284959 155.05033783242106,96.46155691333115 153.13433957472444,99.2308006240055 155.05033783242106,100.61542187258601 154.73100478947163,103.73081820365041 154.09233870357275,107.88467679359019 154.09233870357275,111.69237730279565 153.7730056606233,114.80776635417715 152.49567348696291,118.26930734375492 153.45367261767387,120.69238453172147 153.7730056606233,123.46161408768967 153.7730056606233,126.57699540397152 153.13433957472444,129.69237467413768 152.81500652991235,133.8462105151266 153.45367261767387,136.96158500667661 153.7730056606233,140.42310981964692 155.68900391831994,142.15387127827853 158.56300130672753,144.23078419361264 161.43699869513512,144.57693625846878 164.94966216757894,145.2692403108813 168.14299259893596,144.57693625846878 171.01698998734355,143.19232785049826 173.5716543328017,142.5000234944746 176.12631867825985,140.0769574525766 177.4036508500576,135.57697437424213 177.08431780524552,130.38468089979142 177.4036508500576,125.53853519260883 177.4036508500576,121.03853831393644 176.76498476415873,116.53853716468439 176.4456517212093,112.38468615803868 176.4456517212093,107.538522049319 175.8069856353104,103.38466315669939 173.89098737575114,99.2308006240055 170.05899085849524,96.11540133599192 165.9076612982899,94.03846733924001 161.75633173808455,93.0 157.60500217787921,95.07693445170298 154.4116717465222,99.57695597410202 151.85700740106404,103.73081820365041 150.26034218631685,108.92314087180421 151.85700740106404,115.50007475400344 152.81500652991235,121.7308458047919 152.81500652991235,127.96160866506398 152.49567348696291,133.15390479471534 153.7730056606233,138.69234772957861 156.6470030490309,142.84617568459362 162.71433086693287,145.61539229936898 168.78165868669748,143.5384799898602 172.93298824690282,140.76926216157153 176.4456517212093,135.9231270700693 177.72298389300704,132.11544602364302 177.4036508500576,127.96160866506398 176.76498476415873,122.76930685061961 176.76498476415873,117.92315335804597 176.4456517212093,113.76930356491357 177.08431780524552,109.26929551409557 176.12631867825985,105.11543813720345 174.52965346165,99.92311129858717 171.65565607324243,96.80771246552467 168.14299259893596,94.73077877284959 163.67232999578118,94.38462306885049 158.2436682637781,95.76924573257565 154.4116717465222,97.84617897029966 151.85700740106404,101.65388754336163 150.5796752292663,107.19236728083342 150.26034218631685,111.69237730279565 150.5796752292663,116.19238305278122 149.94100914150476,121.7308458047919 149.62167610041797,126.57699540397152 149.94100914150476,131.4231400489807 151.21834131516516,136.61543238628656 154.09233870357275,140.76926216157153 158.56300130672753,143.88463210500777 163.35299695283175,144.23078419361264 167.82365955598652,143.19232785049826 172.93298824690282,140.0769574525766 175.48765259049833,136.96158500667661 176.4456517212093,131.76929304888472 176.4456517212093,127.26930208550766 176.4456517212093,123.11546048149467 177.08431780524552,116.19238305278122 177.08431780524552,112.73084054747596 177.08431780524552,110.65391383087263 177.4036508500576,108.57698620436713 176.76498476415873,106.15390282310545 175.48765259049833,103.03850808553398 172.93298824690282,100.61542187258601 171.65565607324243,97.50002349447459 169.10099172964692,95.07693445170298 165.9076612982899,94.03846733924001 163.0336639098823,94.38462306885049 160.15966652147472,94.38462306885049 157.924335218966,95.07693445170298 153.7730056606233,96.46155691333115 152.17634044587612,98.19233442144468 150.26034218631685,100.61542187258601 150.5796752292663,103.73081820365041 151.85700740106404,107.19236728083342 152.49567348696291,109.61545013124123 152.49567348696291,115.15392056666315 154.09233870357275,118.26930734375492 155.3696708753705,121.38469207193702 154.09233870357275,123.46161408768967 153.7730056606233,127.26930208550766 152.81500652991235,130.7308339746669 152.17634044587612,134.53851613448933 154.4116717465222,138.69234772957861 156.96633609198034,142.15387127827853 160.4789995662868,143.88463210500777 163.67232999578118,144.57693625846878 168.14299259893596,143.88463210500777 171.65565607324243,142.5000234944746 175.1683195475489,139.73080505942926 177.08431780524552,134.53851613448933 177.4036508500576,128.65391514496878 177.08431780524552,122.76930685061961 176.76498476415873,117.5769993471913 176.4456517212093,111.69237730279565 176.12631867825985,104.76928319176659 174.52965346165,98.8846452482976 167.82365955598652,94.73077877284959 161.75633173808455,94.73077877284959 156.6470030490309,96.46155691333115 152.49567348696291,99.57695597410202 150.89900827221572,104.07697322545573 151.5376743581146,110.65391383087263 151.5376743581146,115.84622891666368 151.21834131516516,120.69238453172147 151.5376743581146,126.23084202595055 150.26034218631685,130.7308339746669 150.5796752292663,135.9231270700693 152.49567348696291,139.3846526411362 155.05033783242106,142.5000234944746 157.924335218966,144.23078419361264 161.75633173808455,145.2692403108813 165.9076612982899,145.2692403108813 171.33632303215563,143.5384799898602 174.52965346165,140.42310981964692 177.08431780524552,134.88466890575364 176.76498476415873,127.96160866506398 176.76498476415873,120.69238453172147 176.4456517212093,114.46161211561412 176.76498476415873,106.50005766795948 174.21032041870058,99.57695597410202 169.42032477259636,95.07693445170298 164.3109960835427,93.3461558050476 156.96633609198034,98.19233442144468 154.09233870357275,99.92311129858717 151.85700740106404,101.30773234507069 149.62167610041797,104.07697322545573 148.34434392675757,108.23083151085302 147.38634479790926,112.73084054747596 147.38634479790926,115.84622891666368 148.02501088380814,119.65392303094268 148.66367697156966,123.80776766873896 149.62167610041797,126.92314875777811 150.5796752292663,130.38468089979142 151.85700740106404,133.5000576665625 153.13433957472444,137.3077376014553 155.3696708753705,140.42310981964692 159.2016673926264,143.19232785049826 162.71433086693287,144.57693625846878 166.22699434123933,144.92308829771355 170.05899085849524,142.84617568459362 172.93298824690282,140.76926216157153 175.1683195475489,138.00004271650687 177.08431780524552,134.19236333714798 176.76498476415873,130.03852779977024 176.76498476415873,126.23084202595055 176.12631867825985,122.76930685061961 176.4456517212093,118.26930734375492 175.48765259049833,115.15392056666315 176.12631867825985,110.65391383087263 175.8069856353104,106.84621248673648 174.8489865064621,103.38466315669939 173.25232128985226,100.61542187258601 170.6976569443941,97.84617897029966 168.14299259893596,95.07693445170298 163.67232999578118,94.73077877284959 160.4789995662868,95.07693445170298 158.56300130672753,95.76924573257565 156.32767000421882,97.15386799210683" stroke="#4DD2FF" stroke-linecap="round" stroke-linejoin="round" stroke-width="0.5"><title>2025-04-27 5.0km</title><desc>9223370291090390729</desc></polyline><polyline fill="none" points="37.49528600368649,166.27380844159052 34.9905720083043,174.41907887044363 26.91982690989971,173.5140496152453 25.806620689108968,173.21237315260805 25.806620689108968,173.5140496152453 35.82547667436302,182.8660090190824 33.32076267711818,190.10622111614794 39.44339688960463,202.7765617549885 43.33961866144091,202.7765617549885 46.67923732288182,200.36316653364338 48.070745098404586,198.5531191925984 51.96696687210351,196.13972150394693 50.5754590947181,189.80454586516134 50.01885598525405,183.77103622513823 49.18395131919533,176.8324892462697 48.90564976353198,171.70399051113054 45.84433265775442,165.9721314504277 41.113206220790744,159.63690955145285 37.773587559349835,157.52516676019877 31.929254902526736,157.22348913084716 30.537747126072645,157.8268443676643 27.19812846556306,158.7318770585116 26.641525353305042,161.74865126376972 26.36322379950434,169.89393061446026 26.641525353305042,176.8324892462697 28.311334684491158,182.56433324026875 32.76415956672281,192.8212973808404 34.71227045264095,197.3464205248747 40.278301554732025,200.96651547099464 46.67923732288182,199.45814296253957 51.410363759845495,194.63134723342955 53.08017309103161,187.9944938980043 52.245268425904214,181.35762990242802 50.01885598525405,175.62578423437662 48.62734820879996,169.29057713970542 45.5660311030224,162.65368309617043 41.113206220790744,156.62013380462304 40.556603111326694,155.41342288907617 35.54717511776835,156.31845610914752 31.929254902526736,161.44697394315153 32.20755645725876,163.25703754113056 32.485858011990786,168.38554676109925 31.37265179026872,173.81572605553083 32.76415956672281,178.34087001602165 32.20755645725876,185.88276560115628 31.09435023739934,194.63134723342955 33.59906423185021,199.75981750828214 42.78301555197686,200.36316653364338 48.90564976353198,195.8380466941744 52.52356998156756,191.6145970390644 52.801871535368264,184.0727119166404 52.52356998156756,178.64254610356875 50.297157539986074,173.21237315260805 49.18395131919533,166.57548540993594 46.957538878545165,161.74865126376972 43.89622177183628,157.22348913084716 39.1650953348726,154.81006729928777 36.382079783827066,156.62013380462304 31.65095334686339,158.4301995174028 31.09435023739934,164.76542326598428 32.20755645725876,170.1956073185429 33.042461121454835,175.32410792657174 33.59906423185021,180.45260216784663 32.485858011990786,185.88276560115628 31.929254902526736,190.10622111614794 30.81604868080467,194.9330221314449 29.146239349618554,199.1564683939796 31.65095334686339,202.7765617549885 39.1650953348726,203.6815845996607 43.06131710764021,200.66484101349488 47.23584043234587,198.25144455907866 51.13206220511347,192.21794725419022 51.96696687210351,188.2961692812387 51.68866531550884,181.05595401278697 50.5754590947181,174.41907887044363 50.297157539986074,168.98890036856756 48.62734820879996,161.74865126376972 44.73112643696368,157.22348913084716 39.721698445267975,156.62013380462304 34.1556673431769,157.8268443676643 30.25944557134062,161.44697394315153 29.70284246094525,167.1788392814342 28.86793779488653,172.0056670838967 29.146239349618554,177.4358416206669 29.981144015677273,183.77103622513823 28.589636240154505,189.80454586516134 28.589636240154505,195.8380466941744 29.424540906213224,199.75981750828214 36.382079783827066,203.379910340067 40.278301554732025,202.7765617549885 44.45282488223165,199.1564683939796 49.74055442865938,197.04474580241367 50.297157539986074,192.51962232822552 49.18395131919533,187.39114306634292 50.01885598525405,181.05595401278697 50.297157539986074,175.62578423437662 48.90564976353198,169.89393061446026 49.18395131919533,162.0503285632003 46.40093576814979,158.4301995174028 41.94811088591814,154.20671162125655 37.21698444895446,155.41342288907617 33.042461121454835,157.22348913084716 33.877365787513554,164.1620690424461 33.042461121454835,170.1956073185429 34.433968897908926,175.9274605200626 33.32076267711818,181.05595401278697 33.877365787513554,183.46936051221564 34.433968897908926,189.20119529776275 33.59906423185021,193.72632240643725 33.877365787513554,196.13972150394693 35.26887356303632,197.04474580241367 36.1037782272324,199.75981750828214 36.1037782272324,201.8715387119446 38.60849222447723,204.88828141707927 41.669809331186116,207.0 45.84433265775442,205.49162969365716 49.18395131919533,203.6815845996607 51.13206220511347,198.25144455907866 53.08017309103161,194.3296723132953 52.245268425904214,188.2961692812387 51.96696687210351,181.65930576971732 50.853760650381446,174.41907887044363 51.13206220511347,168.08386992430314 50.5754590947181,161.44697394315153 49.74055442865938,156.31845610914752 43.89622177183628,153.60335585451685 37.49528600368649,153.90503374882974 33.042461121454835,157.8268443676643 33.042461121454835,164.46374616515823 37.21698444895446,170.49728400167078 37.49528600368649,176.22913678456098 37.773587559349835,183.46936051221564 36.1037782272324,189.80454586516134 33.877365787513554,195.53637186228298 34.9905720083043,199.45814296253957 41.39150777645409,202.4748874292709 47.51414198894054,197.94976990274154 51.13206220511347,193.12297241110355 53.63677620049566,187.9944938980043 53.35847464669496,185.5810900426004 52.245268425904214,183.77103622513823 52.245268425904214,179.849250233965 49.462252873927355,177.73751777387224 45.5660311030224,178.9442221687641 47.51414198894054,177.4358416206669 51.13206220511347,171.70399051113054 48.90564976353198,168.6872235755436 46.40093576814979,166.87716235709377 50.01885598525405,161.74865126376972 45.5660311030224,155.7151006513741 44.73112643696368,157.8268443676643 40.556603111326694,161.14529659901746 38.88679378014058,161.14529659901746 40.556603111326694,159.93858700525016 39.44339688960463,164.76542326598428 39.1650953348726,168.38554676109925 42.226412440650165,170.49728400167078 38.05188911408186,172.0056670838967 31.37265179026872,172.30734363384545 34.71227045264095,181.96098161488771 36.660381339490414,189.50287059322 38.33019067067653,194.02799737034366 37.49528600368649,194.3296723132953 36.93868289422244,199.1564683939796 41.113206220790744,201.8715387119446 45.0094279916957,198.25144455907866 50.297157539986074,196.13972150394693 54.19337931089103,192.51962232822552 51.410363759845495,187.9944938980043 50.5754590947181,182.2626574379392 51.13206220511347,177.73751777387224 50.297157539986074,174.41907887044363 52.245268425904214,165.06710034492426 51.410363759845495,162.9553603292443 43.89622177183628,159.63690955145285 43.06131710764021,157.22348913084716 40.278301554732025,158.7318770585116 41.669809331186116,160.5419418462552 36.382079783827066,165.3687774024438 38.05188911408186,169.29057713970542 38.60849222447723,175.0224315961823 36.93868289422244,179.54757423466071 34.1556673431769,185.5810900426004 35.54717511776835,194.3296723132953 38.88679378014058,199.1564683939796 38.33019067067653,199.1564683939796 43.06131710764021,199.1564683939796 48.62734820879996,198.25144455907866 50.297157539986074,190.70957155129872 50.853760650381446,189.50287059322 51.410363759845495,181.65930576971732 51.13206220511347,176.53081302670762 48.62734820879996,172.91069666855037 51.410363759845495,167.4805161850527 47.23584043234587,163.86039189714938 45.28772954829037,159.93858700525016 39.1650953348726,160.2402644371614 38.33019067067653,163.86039189714938 37.49528600368649,163.25703754113056 38.60849222447723,164.76542326598428 37.773587559349835,167.7821930651553 36.1037782272324,170.49728400167078 38.60849222447723,178.9442221687641 37.49528600368649,181.96098161488771 34.1556673431769,184.97773885773495 38.33019067067653,188.597844642587 34.1556673431769,191.01124673546292 31.929254902526736,189.80454586516134 31.65095334686339,191.31292189843953 36.1037782272324,194.02799737034366 36.1037782272324,194.63134723342955 40.0,197.04474580241367 46.67923732288182,196.13972150394693 46.957538878545165,196.44139629253186 49.462252873927355,195.53637186228298 53.35847464669496,191.31292189843953 51.410363759845495,194.63134723342955 49.18395131919533,190.10622111614794 50.297157539986074,188.2961692812387 51.96696687210351,181.96098161488771 48.62734820879996,179.24589821277186 50.5754590947181,173.81572605553083 51.68866531550884,168.38554676109925 47.51414198894054,171.70399051113054 50.297157539986074,167.4805161850527 50.297157539986074,159.93858700525016 47.23584043234587,156.9218114784453 39.44339688960463,159.03355457819998 35.54717511776835,160.2402644371614 36.660381339490414,164.1620690424461 36.93868289422244,168.6872235755436 35.54717511776835,174.41907887044363 36.1037782272324,179.24589821277186 38.88679378014058,184.374387585558 36.93868289422244,189.80454586516134 38.60849222447723,194.3296723132953 38.88679378014058,197.648095224984 40.83490466605872,200.06149203167297 43.06131710764021,198.25144455907866 43.617920217104256,197.648095224984 49.18395131919533,197.648095224984 50.5754590947181,191.01124673546292 52.245268425904214,190.70957155129872 51.68866531550884,184.0727119166404 50.297157539986074,179.24589821277186 49.462252873927355,173.21237315260805 51.13206220511347,168.08386992430314 51.13206220511347,164.1620690424461 47.792443544603884,160.84361923392862 43.33961866144091,161.74865126376972 39.1650953348726,160.5419418462552 36.1037782272324,161.14529659901746 40.83490466605872,163.55871472973377 37.49528600368649,168.38554676109925 39.721698445267975,172.6090201626066 39.721698445267975,179.54757423466071 37.773587559349835,182.56433324026875 36.660381339490414,190.10622111614794 33.59906423185021,195.23469700780697 37.49528600368649,198.25144455907866 41.113206220790744,199.1564683939796 46.40093576814979,197.3464205248747 49.18395131919533,196.13972150394693 49.18395131919533,190.40789634454995 53.08017309103161,186.4861166542396 50.5754590947181,181.65930576971732 50.01885598525405,174.41907887044363 50.01885598525405,171.10063730040565 46.957538878545165,165.9721314504277 49.462252873927355,162.35200584097765 46.957538878545165,158.4301995174028 45.5660311030224,158.7318770585116 42.50471399631351,159.63690955145285 39.721698445267975,158.7318770585116 34.9905720083043,162.35200584097765 36.93868289422244,166.27380844159052 36.660381339490414,167.1788392814342 38.05188911408186,166.87716235709377 39.721698445267975,170.1956073185429 42.78301555197686,174.11740247369744 42.226412440650165,176.8324892462697 40.83490466605872,175.62578423437662 35.82547667436302,173.5140496152453 30.81604868080467,172.0056670838967 30.537747126072645,171.10063730040565 30.81604868080467,171.4023139171768 30.81604868080467,171.4023139171768 30.81604868080467,171.4023139171768 27.19812846556306,173.81572605553083 26.91982690989971,173.81572605553083 26.641525353305042,173.81572605553083 27.19812846556306,173.81572605553083 28.033033130690455,173.21237315260805 28.86793779488653,173.5140496152453 29.424540906213224,173.21237315260805 28.589636240154505,173.81572605553083 27.754731575027108,173.21237315260805 27.19812846556306,173.21237315260805 27.47643001936376,173.21237315260805 28.033033130690455,173.21237315260805" stroke="#4DD2FF" stroke-linecap="round" stroke-linejoin="round" stroke-width="0.5"><title>2025-04-25 5.1km</title><desc>9223370291262395013</desc></polyline><polyline fill="none" points="147.22668107412755,168.57698620390147 149.14267891272902,177.2308453116566 149.14267891272902,182.42315319366753 146.58801512792706,184.15392122371122 145.630016207695,191.42314004991204 145.94934918172657,196.61543238675222 147.86534702032804,201.1154144788161 150.42001080513,203.1923278500326 155.8486713487655,205.26924031041563 163.19332973100245,204.57693625846878 169.57998919300735,201.1154144788161 172.1346529815346,198.34619523445144 173.7313178461045,195.23082165280357 174.369983792305,192.11544602364302 174.05065081827343,180.0000768895261 173.7313178461045,168.57698620390147 173.09265189804137,162.3461978645064 171.1766540594399,158.53848984837532 168.30265730060637,155.76924573304132 163.83199567720294,154.03846733970568 159.0420010816306,154.03846733970568 154.89067243039608,155.42309010541067 151.37800972349942,157.5000234944746 148.1846799943596,161.30773234553635 148.82334593869746,167.88467679312453 148.5040129646659,169.96160472324118 149.14267891272902,178.96161523787305 148.5040129646659,185.88468862138689 148.1846799943596,195.57697437424213 150.42001080513,200.07695745211095 153.6133405379951,203.1923278500326 158.08400216139853,204.9230882972479 162.87399675883353,204.9230882972479 167.34465838223696,202.84617568412796 171.1766540594399,200.07695745211095 173.09265189804137,197.65389017108828 174.05065081827343,194.53851613402367 174.369983792305,182.07699951110408 174.369983792305,169.96160472324118 174.05065081827343,164.42312822118402 173.41198487207294,160.96157712163404 169.89932216703892,156.46155691333115 167.34465838223696,154.73077877238393 160.9579989183694,153.34615580551326 157.76466918736696,153.69231158541515 154.89067243039608,155.07693445170298 150.10067783109844,158.8846452482976 147.86534702032804,164.0769732259214 148.1846799943596,173.42314925137907 147.86534702032804,179.3077691476792 148.5040129646659,189.0000683455728 148.1846799943596,195.57697437424213 149.14267891272902,198.69234772911295 150.73934377916157,201.1154144788161 153.29400756396353,202.84617568412796 160.0,204.57693625846878 163.19332973100245,204.23078419454396 166.38665946386755,203.1923278500326 171.49598703347147,198.69234772911295 173.09265189804137,195.9231270700693 174.05065081827343,190.0385277988389 173.7313178461045,177.92315335851163 173.7313178461045,166.15390282310545 173.41198487207294,163.03850808553398 170.5379881132394,157.5000234944746 165.4286605436355,154.3846230688505 162.2353308107704,153.69231158541515 155.8486713487655,155.07693445170298 151.37800972349942,158.53848984837532 150.10067783109844,160.61542187305167 148.1846799943596,166.15390282310545 149.14267891272902,169.61545013124123 148.5040129646659,181.7308458047919 148.1846799943596,184.84622825914994 148.82334593869746,187.9616086659953 147.86534702032804,193.84621051466092 149.78134485892951,199.03850019769743 151.69734269753098,201.1154144788161 153.6133405379951,202.50002349400893 159.3613340537995,204.23078419454396 162.87399675883353,204.23078419454396 165.7479935158044,203.1923278500326 170.85732108727098,199.38465264067054 172.77331892587245,196.26927974121645 174.05065081827343,193.15390479424968 174.05065081827343,181.3846920724027 173.7313178461045,169.61545013124123 173.41198487207294,163.38466315716505 170.85732108727098,157.84617897076532 168.62199027463794,155.76924573304132 165.4286605436355,154.3846230688505 159.3613340537995,153.34615580551326 156.16800432279706,154.3846230688505 152.97467458993196,156.11540133599192 150.73934377916157,158.19233442191035 148.5040129646659,162.6923529873602 147.86534702032804,165.11543813860044 147.86534702032804,171.6923773032613 148.82334593869746,181.3846920724027 148.5040129646659,190.73083397559822 148.5040129646659,196.61543238675222 151.37800972349942,201.1154144788161 153.93267350830138,202.84617568412796 160.0,203.8846321045421 165.4286605436355,202.84617568412796 168.30265730060637,201.46156676998362 170.5379881132394,199.38465264067054 173.41198487207294,193.84621051466092 173.7313178461045,182.07699951110408 173.7313178461045,170.30775928962976 173.09265189804137,161.30773234553635 171.81532000750303,158.53848984837532 168.30265730060637,155.07693445170298 166.70599243417382,154.03846733970568 160.31933297403157,153.0 156.16800432279706,153.69231158541515 151.0586767513305,157.1538679935038 150.10067783109844,158.8846452482976 149.78134485892951,160.61542187305167 148.82334593869746,162.3461978645064 148.5040129646659,166.50005766795948 145.31068323552608,174.8077663546428 145.31068323552608,176.88469125144184 145.94934918172657,178.96161523787305 147.22668107412755,181.03853831486776 147.54601404629648,182.7693068506196 147.54601404629648,191.07698702532798 148.82334593869746,196.61543238675222 150.42001080513,198.34619523445144 150.73934377916157,200.07695745211095 153.6133405379951,202.50002349400893 155.52933837473392,203.1923278500326 163.51266270503402,203.1923278500326 170.5379881132394,200.07695745211095 173.41198487207294,195.57697437424213 173.41198487207294,184.50007475400344 173.41198487207294,173.7693035644479 173.41198487207294,163.73081820365041 171.1766540594399,157.84617897076532 168.9413232486695,155.42309010541067 166.06732648983598,154.03846733970568 162.87399675883353,153.0 159.68066702596843,153.34615580551326 156.16800432279706,154.03846733970568 153.29400756396353,155.76924573304132 149.14267891272902,159.92311129858717 147.22668107412755,166.15390282310545 148.1846799943596,175.50007475400344 148.1846799943596,185.19238173868507 147.86534702032804,190.73083397559822 148.82334593869746,197.30773760192096 152.01667567156255,201.46156676998362 154.25200648233294,202.84617568412796 156.8066702671349,203.5384799898602 165.4286605436355,202.15387127781287 168.62199027463794,200.76926216157153 172.1346529815346,196.61543238675222 173.41198487207294,192.80775189539418 173.7313178461045,182.7693068506196 174.68931676447392,169.96160472324118 174.05065081827343,164.7692831926979 169.89932216703892,157.84617897076532 167.98332432843745,156.46155691333115 161.27733189240098,155.42309010541067 156.16800432279706,156.80771246552467 153.29400756396353,158.19233442191035 147.54601404629648,164.0769732259214 146.58801512792706,171.00006834743544 146.907348100096,180.0000768895261 147.22668107412755,182.07699951110408 145.630016207695,188.3077619173564 146.58801512792706,196.96158500667661 147.86534702032804,201.1154144788161 149.4620118867606,202.50002349400893 156.48733729682863,204.9230882972479 161.59666486643255,204.23078419454396 169.26065622083843,200.07695745211095 172.1346529815346,195.9231270700693 173.41198487207294,190.73083397559822 174.05065081827343,180.0000768895261 173.41198487207294,170.30775928962976 173.41198487207294,164.42312822118402 172.77331892587245,162.6923529873602 168.62199027463794,158.53848984837532 166.70599243417382,157.5000234944746 161.91599784046412,156.80771246552467 156.8066702671349,157.84617897076532 151.0586767513305,161.30773234553635 146.26868215575814,166.15390282310545 145.630016207695,168.57698620390147 146.58801512792706,178.26930734328926 145.94934918172657,190.0385277988389 145.94934918172657,192.80775189539418 146.26868215575814,195.9231270700693 147.86534702032804,198.34619523445144 149.78134485892951,200.42310981918126 153.93267350830138,202.50002349400893 162.55466378480196,203.1923278500326 168.9413232486695,200.07695745211095 171.81532000750303,196.61543238675222 172.77331892587245,194.1923633380793 173.7313178461045,184.50007475400344 173.41198487207294,172.38468615803868 173.09265189804137,165.11543813860044 172.45398595184088,162.0000427174382 170.21865514107049,159.2308006240055 166.70599243417382,156.11540133599192 164.47066162340343,155.42309010541067 159.0420010816306,155.76924573304132 152.33600864373147,159.57695597456768 149.14267891272902,162.6923529873602 147.86534702032804,165.80774795310572 146.58801512792706,175.84622891619802 146.58801512792706,187.9616086659953 147.22668107412755,194.1923633380793 148.82334593869746,198.34619523445144 150.73934377916157,200.76926216157153 156.8066702671349,203.8846321045421 163.51266270503402,203.1923278500326 169.26065622083843,200.76926216157153 172.1346529815346,196.96158500667661 173.41198487207294,193.84621051466092 173.41198487207294,183.46161408768967 173.41198487207294,171.6923773032613 172.45398595184088,164.0769732259214 170.21865514107049,159.92311129858717 165.7479935158044,155.76924573304132 161.59666486643255,155.07693445170298 156.8066702671349,156.46155691333115 153.6133405379951,158.53848984837532 147.22668107412755,165.11543813860044 145.630016207695,168.57698620390147 146.26868215575814,170.30775928962976 145.630016207695,172.38468615803868 145.630016207695,178.26930734328926 147.54601404629648,186.2308420264162 147.86534702032804,195.23082165280357 150.10067783109844,200.42310981918126 154.25200648233294,203.1923278500326 159.0420010816306,204.9230882972479 163.83199567720294,204.57693625846878 166.38665946386755,203.5384799898602 170.21865514107049,200.42310981918126 173.41198487207294,194.1923633380793 173.09265189804137,183.115460481029 173.09265189804137,171.34622283792123 173.09265189804137,163.38466315716505 171.1766540594399,157.84617897076532 169.26065622083843,155.76924573304132 164.47066162340343,154.3846230688505 162.2353308107704,154.3846230688505 155.52933837473392,157.1538679935038 151.37800972349942,160.61542187305167 148.82334593869746,165.80774795310572 149.78134485892951,177.2308453116566 148.82334593869746,187.6154553880915 148.82334593869746,193.15390479424968 148.1846799943596,195.9231270700693 152.01667567156255,201.46156676998362 154.89067243039608,203.8846321045421 157.76466918736696,205.61539229936898 162.2353308107704,205.9615442622453 166.70599243417382,204.9230882972479 169.57998919300735,203.1923278500326 172.77331892587245,198.69234772911295 173.7313178461045,195.57697437424213 173.7313178461045,184.50007475400344 173.41198487207294,173.07699491176754 173.09265189804137,162.6923529873602 170.5379881132394,158.53848984837532 168.9413232486695,157.1538679935038 166.38665946386755,156.11540133599192 160.31933297403157,156.11540133599192 156.48733729682863,157.84617897076532 153.6133405379951,160.61542187305167 152.01667567156255,161.6538875438273 149.78134485892951,166.50005766795948 150.73934377916157,175.50007475400344 152.01667567156255,180.34623072389513 152.01667567156255,183.46161408768967 151.0586767513305,185.53853519260883 151.0586767513305,196.26927974121645 150.73934377916157,198.69234772911295 151.69734269753098,200.76926216157153 155.8486713487655,205.26924031041563 158.08400216139853,206.3076961999759 160.6386659462005,207.0 162.87399675883353,206.6538481125608 169.26065622083843,202.84617568412796 171.49598703347147,201.1154144788161 174.05065081827343,193.5000576665625 173.09265189804137,185.53853519260883 173.41198487207294,180.0000768895261 172.77331892587245,169.26929551409557 172.45398595184088,166.84621248720214 170.21865514107049,162.0000427174382 168.9413232486695,159.92311129858717 165.4286605436355,158.19233442191035 162.55466378480196,157.5000234944746 159.68066702596843,157.84617897076532 154.89067243039608,159.92311129858717 150.42001080513,164.0769732259214" stroke="#4DD2FF" stroke-linecap="round" stroke-linejoin="round" stroke-width="0.5"><title>2025-04-22 5.4km</title><desc>9223370291521416207</desc></polyline><polyline fill="none" points="55.17751479335129,234.19844162208028 55.976331361569464,236.10344629525207 54.53846153896302,237.83526739804074 54.53846153896302,243.20390478009358 54.53846153896302,244.93572069774382 52.7810650896281,248.5725300090853 52.94082840252668,249.7847985404078 53.73964497074485,251.34342859871686 54.85798816662282,252.38251473521814 57.25443787034601,253.94114308664575 60.60946745611727,254.1143239508383 63.964497041888535,252.90205763280392 65.24260355066508,252.03615274024196 66.52071005944163,249.6116173597984 66.84023668710142,244.24299448239617 66.68047337327152,239.04754141787998 66.52071005944163,233.8520769716706 65.88165680598468,231.77388800657354 64.44378698337823,229.8688798553776 63.64497041516006,229.00296655343845 60.60946745611727,228.65660114446655 57.57396449800581,229.17614923906513 55.33727810718119,230.90797540009953 54.69822485279292,232.29343541851267 54.37869822513312,235.06435302691534 54.53846153896302,240.25981481769122 54.37869822513312,245.97480964148417 54.85798816662282,249.7847985404078 55.49704142101109,251.34342859871686 56.45562130212784,252.55569571373053 59.491124261170626,253.5947813191451 60.92899408377707,253.76796220894903 62.207100592553616,253.4216004165355 64.44378698337823,252.03615274024196 66.20118343271315,249.7847985404078 66.52071005944163,248.22616745787673 66.52071005944163,243.03072311822325 66.68047337327152,237.66208534454927 66.20118343271315,236.96935700485483 66.36094674654305,234.71798850269988 65.72189349122345,232.98616512399167 64.7633136101067,232.29343541851267 64.12426035571843,230.90797540009953 63.005917159840465,230.0420624774415 58.21301775239408,229.69569722004235 55.976331361569464,230.38842768478207 55.17751479335129,230.90797540009953 54.21893491130322,232.46661786385812 54.37869822513312,235.06435302691534 54.21893491130322,236.4498106171377 54.53846153896302,240.6061785321217 54.059171598404646,243.20390478009358 54.21893491130322,248.22616745787673 54.69822485279292,250.82388535980135 57.89349112473428,252.90205763280392 60.92899408377707,253.4216004165355 62.366863906383514,253.0752385733649 63.964497041888535,252.20933374436572 65.24260355066508,250.9970664519351 66.04142011981457,249.4384361661505 66.68047337327152,243.89663129881956 66.68047337327152,238.52799548534676 66.36094674654305,234.02525930292904 66.04142011981457,232.46661786385812 64.9230769239366,230.5616102691274 62.52662721928209,228.82978385523893 59.970414201729,228.48341842065565 58.692307692952454,228.82978385523893 56.13609467446804,230.5616102691274 55.017751479521394,231.77388800657354 54.21893491130322,234.71798850269988 54.53846153896302,237.66208534454927 54.37869822513312,243.37708642845973 54.53846153896302,248.39934873976745 54.85798816662282,249.95797970867716 56.13609467446804,251.68979069497436 58.532544379122555,253.4216004165355 61.72781065199524,253.4216004165355 64.28402366861701,252.20933374436572 66.04142011981457,250.13116086437367 66.52071005944163,248.5725300090853 66.68047337327152,243.72344968817197 66.52071005944163,238.87435945286416 66.20118343271315,234.02525930292904 65.88165680598468,232.1202529608272 63.964497041888535,229.8688798553776 62.04733727872372,228.82978385523893 58.692307692952454,228.82978385523893 55.816568047739565,230.90797540009953 54.69822485279292,234.02525930292904 55.33727810718119,239.74026915058494 55.33727810718119,245.10890221991576 55.017751479521394,247.8798048561439 55.17751479335129,249.2652549596969 56.13609467446804,251.17024753172882 58.05325443856418,252.7288766792044 59.33136094734073,253.24841950112022 60.92899408377707,253.5947813191451 63.165680474601686,252.90205763280392 65.08284023683518,251.34342859871686 66.36094674654305,249.09207374113612 66.36094674654305,243.72344968817197 65.88165680598468,237.66208534454927 66.20118343271315,233.67889462737367 65.08284023683518,231.08115794695914 63.165680474601686,229.34933191211894 61.56804733723402,228.65660114446655 58.692307692952454,228.82978385523893 57.09467455651611,229.69569722004235 55.65680473390967,231.60070551070385 55.017751479521394,235.23753526993096 55.33727810718119,238.18163146683946 55.17751479335129,239.74026915058494 55.17751479335129,244.4161760553252 55.33727810718119,248.91889250976965 56.45562130212784,251.34342859871686 58.532544379122555,252.90205763280392 59.650887575000525,253.4216004165355 62.366863906383514,253.24841950112022 64.12426035571843,252.55569571373053 65.24260355066508,251.34342859871686 66.20118343271315,249.95797970867716 66.68047337327152,247.01389813004062 66.68047337327152,240.7793603707105 66.52071005944163,235.41071750037372 66.20118343271315,234.371623928193 66.36094674654305,233.50571227050386 65.88165680598468,231.77388800657354 63.964497041888535,229.69569722004235 62.207100592553616,228.82978385523893 59.17159763351083,228.82978385523893 57.25443787034601,229.52251457236707 54.69822485279292,232.46661786385812 54.85798816662282,237.3157212000806 54.53846153896302,239.39390530902892 54.69822485279292,240.25981481769122 54.53846153896302,241.29890580964275 54.69822485279292,242.33799634687603 54.37869822513312,243.37708642845973 54.85798816662282,247.18707950087264 54.85798816662282,249.4384361661505 55.65680473390967,251.17024753172882 56.29585798922926,252.03615274024196 57.09467455651611,252.55569571373053 59.970414201729,253.4216004165355 60.92899408377707,253.4216004165355 62.68639053311199,252.7288766792044 63.64497041516006,252.7288766792044 64.7633136101067,252.38251473521814 66.52071005944163,248.91889250976965 67.0,245.28208372974768 66.68047337327152,242.51117805903777 67.0,240.43299668096006 66.52071005944163,235.06435302691534 66.36094674654305,232.98616512399167 65.08284023683518,230.5616102691274 63.48520710133016,229.17614923906513 62.68639053311199,228.82978385523893 58.85207100585103,228.82978385523893 56.29585798922926,230.21524508739822 55.17751479335129,231.42752300179563 53.73964497074485,234.02525930292904 54.21893491130322,239.2207233698573 54.53846153896302,240.7793603707105 54.21893491130322,243.89663129881956 54.69822485279292,248.74571126583032 55.33727810718119,250.30434200703166 56.13609467446804,251.5166096528992 58.532544379122555,252.90205763280392 59.8106508878991,253.4216004165355 62.68639053311199,253.0752385733649 65.24260355066508,251.68979069497436 66.68047337327152,248.39934873976745 66.52071005944163,243.72344968817197 66.68047337327152,238.87435945286416 66.52071005944163,238.00844943872653 67.0,237.14253910887055 66.68047337327152,235.23753526993096 66.84023668710142,234.19844162208028 66.04142011981457,232.46661786385812 64.28402366861701,230.5616102691274 62.04733727872372,229.17614923906513 59.650887575000525,228.65660114446655 57.57396449800581,229.00296655343845 56.13609467446804,230.7347928408999 54.85798816662282,231.77388800657354 54.059171598404646,233.15934751858003 54.69822485279292,237.83526739804074 54.85798816662282,242.51117805903777 55.017751479521394,248.0529861629475 55.33727810718119,249.4384361661505 57.25443787034601,252.03615274024196 59.17159763351083,253.24841950112022 61.56804733723402,253.5947813191451 64.44378698337823,252.38251473521814 65.56213017832488,251.34342859871686 66.68047337327152,249.2652549596969 66.68047337327152,244.24299448239617 66.68047337327152,241.29890580964275 65.72189349122345,235.93026411579922 65.56213017832488,233.3325299010612 64.12426035571843,230.90797540009953 61.88757396489382,229.52251457236707 59.8106508878991,229.17614923906513 57.25443787034601,229.69569722004235 55.33727810718119,231.08115794695914 54.69822485279292,232.63980029686354 54.53846153896302,234.371623928193 55.17751479335129,236.4498106171377 55.33727810718119,238.70117747504264 55.816568047739565,241.29890580964275 55.816568047739565,243.03072311822325 55.65680473390967,247.8798048561439 55.816568047739565,249.4384361661505 57.09467455651611,252.03615274024196 58.372781065292656,252.7288766792044 59.8106508878991,253.24841950112022 60.76923076994717,253.4216004165355 63.48520710133016,252.90205763280392 64.9230769239366,252.03615274024196 66.20118343271315,250.13116086437367 66.52071005944163,248.5725300090853 66.68047337327152,246.6675353513565 66.52071005944163,241.4720875977073 66.84023668710142,237.4889032789506 66.20118343271315,236.4498106171377 66.52071005944163,233.67889462737367 65.08284023683518,230.90797540009953 63.32544378750026,229.34933191211894 60.92899408377707,228.48341842065565 59.491124261170626,228.65660114446655 57.89349112473428,229.52251457236707 56.61538461595774,230.38842768478207 55.49704142101109,231.94707048963755 55.017751479521394,234.371623928193 55.816568047739565,238.87435945286416 55.49704142101109,239.5670872363262 55.65680473390967,241.4720875977073 55.49704142101109,242.16481462214142 55.976331361569464,246.6675353513565 55.816568047739565,248.5725300090853 56.775147929787636,251.34342859871686 57.733727810904384,252.38251473521814 59.01183432061225,253.24841950112022 60.60946745611727,253.24841950112022 62.366863906383514,252.7288766792044 65.08284023683518,250.82388535980135 66.20118343271315,248.91889250976965 66.20118343271315,243.89663129881956 66.68047337327152,242.85754144447856 66.84023668710142,240.95254219626077 66.20118343271315,235.75708192354068 65.88165680598468,232.98616512399167 64.12426035571843,230.21524508739822 61.248520710505545,228.65660114446655 59.491124261170626,228.65660114446655 57.09467455651611,230.38842768478207 53.57988165784627,234.19844162208028 53.73964497074485,233.3325299010612 54.85798816662282,232.81298271659762 55.816568047739565,232.63980029686354 54.53846153896302,233.15934751858003 54.85798816662282,232.29343541851267 54.85798816662282,233.50571227050386 56.13609467446804,233.3325299010612 56.93491124268621,233.15934751858003 56.61538461595774,234.02525930292904 55.65680473390967,235.06435302691534 54.059171598404646,235.58389971847646 53.42011834308505,236.27662846283056 51.66272189375013,237.3157212000806 49.266272189095616,231.94707048963755 47.828402367420495,231.42752300179563 13.319526626728475,233.8520769716706 13.0,231.08115794695914 13.319526626728475,232.81298271659762 15.076923076994717,233.15934751858003 16.83431952726096,231.60070551070385 21.627218935638666,231.42752300179563 28.33727810624987,231.94707048963755 31.05325443763286,232.81298271659762 33.76923076901585,233.3325299010612 35.20710059162229,232.1202529608272 35.84615384694189,230.5616102691274 33.92899408284575,225.8856760491617 32.970414201729,225.8856760491617" stroke="#4DD2FF" stroke-linecap="round" stroke-linejoin="round" stroke-width="0.5"><title>2025-04-16 5.1km</title><desc>9223370292037735107</desc></polyline><polyline fill="none" points="150.29559323564172,239.6494265398942 150.6190734617412,242.4546207310632 149.64863278530538,254.37667775945738 149.64863278530538,256.1299189431593 151.5895141363144,262.79222960677 160.0,265.94805774698034 162.2643615771085,266.2987051899545 165.49916383251548,265.24676278373227 168.73396608792245,263.1428772797808 174.23312992043793,256.4805671037175 174.23312992043793,247.71435542125255 173.9096496962011,236.49358111713082 173.5861694701016,225.97408139472827 173.2626892440021,222.11692572245374 171.32180789113045,218.9610687769018 168.41048585996032,215.8052097586915 164.8522033803165,214.40260508377105 161.29392090067267,214.40260508377105 158.05911864712834,215.10390747198835 154.82431639172137,216.85716299479827 151.26603391207755,220.01302132289857 147.70775143243372,227.02603240404278 146.41383052803576,235.09098248556256 147.3842712044716,240.7013745540753 147.06079098023474,249.11695036571473 148.03123165667057,251.57149053225294 149.0016723331064,260.68834302714095 153.85387571528554,264.1948201470077 159.35303954780102,266.2987051899545 163.88176270388067,265.59741027792916 169.05744631402194,262.44158190721646 171.64528811722994,258.5844555259682 173.2626892440021,252.9740843512118 174.23312992043793,243.50656813010573 174.55661014653742,231.23383413627744 173.9096496962011,223.87017868552357 171.32180789113045,217.90911600086838 166.4696045089513,214.75325629115105 163.88176270388067,214.40260508377105 160.97044067643583,214.75325629115105 158.05911864712834,216.15586086269468 150.6190734617412,222.11692572245374 148.35471188090742,225.97408139472827 147.3842712044716,234.03903324250132 146.73731075413525,238.24682883080095 147.06079098023474,242.10397154605016 144.4729491751641,249.46759903850034 145.76687007769942,253.32473274227232 146.09035030566156,257.5325114293955 148.03123165667057,262.09093418205157 151.5895141363144,264.54546771757305 155.14779661782086,266.2987051899545 159.35303954780102,267.0 166.79308473318815,264.896115263924 172.61572879366577,259.2857514624484 173.9096496962011,256.831215237733 173.9096496962011,247.0130577958189 173.5861694701016,241.40267310105264 173.9096496962011,236.14293149719015 172.9392090179026,234.03903324250132 174.23312992043793,231.58448411384597 173.2626892440021,224.22082920046523 171.32180789113045,220.36367212003097 168.73396608792245,217.55846502445638 165.82264405675232,216.15586086269468 157.412158196792,216.50651194155216 153.85387571528554,217.90911600086838 150.29559323564172,220.36367212003097 148.35471188090742,223.51952814357355 147.06079098023474,231.23383413627744 146.73731075413525,238.24682883080095 146.09035030566156,242.10397154605016 147.06079098023474,253.32473274227232 147.3842712044716,257.18186334660277 149.3251525592059,260.68834302714095 151.26603391207755,263.1428772797808 154.82431639172137,265.24676278373227 158.70607909746468,266.64935260731727 161.61740112677217,266.64935260731727 170.99832766503096,261.74028643220663 172.9392090179026,260.33769517438486 174.55661014653742,255.77927075792104 175.52705082297325,249.81824768520892 174.88009037077427,247.36370662087575 174.55661014653742,237.89617933891714 173.5861694701016,234.03903324250132 174.23312992043793,225.62343100691214 173.5861694701016,221.06497363746166 171.96876834146678,217.90911600086838 169.05744631402194,215.45455862767994 166.14612428471446,214.05195385124534 161.94088135287166,213.70130259310827 158.05911864712834,214.75325629115105 154.17735594138503,217.55846502445638 148.03123165667057,224.22082920046523 146.73731075413525,232.63643389428034 146.41383052803576,238.94812773633748 147.06079098023474,249.11695036571473 146.73731075413525,256.4805671037175 148.35471188090742,259.9870472960174 150.29559323564172,262.09093418205157 155.14779661782086,264.896115263924 158.70607909746468,264.54546771757305 162.91132202930748,265.24676278373227 166.79308473318815,263.49352492857724 170.02788698859513,261.03899085382 171.96876834146678,258.5844555259682 173.2626892440021,255.07797430921346 173.2626892440021,250.87019347026944 174.88009037077427,246.6624089437537 174.55661014653742,243.85721721220762 175.20357059687376,239.6494265398942 174.88009037077427,235.7922818530351 174.88009037077427,233.3377336198464 174.55661014653742,230.8831841321662 174.55661014653742,223.16887757647783 173.5861694701016,221.06497363746166 168.73396608792245,215.45455862767994 165.49916383251548,213.70130259310827 159.02955932356417,214.40260508377105 156.1182372942567,215.45455862767994 153.53039548918605,217.20781402289867 148.35471188090742,225.97408139472827 147.3842712044716,235.44163218187168 146.41383052803576,238.59747829614207 146.41383052803576,243.15591902239248 145.44338985159993,247.0130577958189 146.73731075413525,258.5844555259682 149.3251525592059,262.44158190721646 157.412158196792,265.94805774698034 162.587841803208,265.94805774698034 167.1165649611503,264.896115263924 169.05744631402194,263.84417255036533 173.5861694701016,259.2857514624484 174.55661014653742,249.46759903850034 175.20357059687376,243.15591902239248 173.9096496962011,237.19488027924672 174.88009037077427,226.32473175693303 174.55661014653742,222.46757636591792 170.99832766503096,216.15586086269468 168.73396608792245,215.10390747198835 167.1165649611503,214.05195385124534 160.32348022423685,213.0 158.3825988713652,213.70130259310827 155.14779661782086,215.45455862767994 148.03123165667057,223.51952814357355 147.06079098023474,228.42863339092582 147.3842712044716,238.24682883080095 147.06079098023474,250.51954490086064 146.41383052803576,254.37667775945738 147.3842712044716,260.68834302714095 154.50083616562188,265.59741027792916 159.6765197739005,264.896115263924 163.88176270388067,265.24676278373227 167.76352541148663,264.1948201470077 170.6748474407941,261.389638655819 173.9096496962011,255.07797430921346 174.88009037077427,248.06500419555232 174.23312992043793,237.19488027924672 174.55661014653742,234.74033276364207 173.2626892440021,224.92213015444577 172.29224856756628,220.36367212003097 171.32180789113045,217.90911600086838 169.70440676435828,216.50651194155216 164.8522033803165,214.75325629115105 161.61740112677217,214.40260508377105 152.55995481275022,217.90911600086838 150.29559323564172,220.71432289201766 148.67819210886955,227.7273329491727 149.3251525592059,237.19488027924672 149.3251525592059,241.75332233682275 148.03123165667057,245.61046223621815 149.0016723331064,258.2338075200096 150.6190734617412,261.74028643220663 152.23647458851337,263.84417255036533 157.73563842102885,267.0 164.52872315607965,267.0 167.44004518538713,265.24676278373227 172.61572879366577,261.03899085382 175.52705082297325,255.07797430921346 174.88009037077427,249.81824768520892 175.20357059687376,247.36370662087575 174.23312992043793,243.85721721220762 174.55661014653742,233.68838344421238 174.88009037077427,224.22082920046523 173.5861694701016,222.11692572245374 172.61572879366577,219.66237049968913 171.32180789113045,217.90911600086838 168.08700563758612,215.10390747198835 160.64696045033634,213.70130259310827 156.1182372942567,214.40260508377105 154.17735594138503,215.8052097586915 152.55995481275022,215.8052097586915 148.67819210886955,223.51952814357355 149.0016723331064,225.97408139472827 149.0016723331064,228.0779831823893 149.64863278530538,230.8831841321662 148.67819210886955,237.89617933891714 149.3251525592059,245.9611111646518 149.0016723331064,250.1688963053748 149.3251525592059,252.62343593453988 149.0016723331064,257.8831594879739 150.94255368597806,262.09093418205157 157.08867796882987,265.59741027792916 161.29392090067267,265.59741027792916 165.49916383251548,264.896115263924 168.73396608792245,263.1428772797808 171.64528811722994,259.9870472960174 174.88009037077427,253.32473274227232 174.23312992043793,243.15591902239248 174.23312992043793,236.8442307114601 173.9096496962011,233.68838344421238 174.55661014653742,228.42863339092582 174.55661014653742,224.22082920046523 173.9096496962011,222.11692572245374 170.35136721469462,217.20781402289867 166.79308473318815,215.10390747198835 162.2643615771085,214.05195385124534 157.08867796882987,215.8052097586915 152.8834350388497,218.25976695260033 149.97211300767958,222.11692572245374 147.70775143243372,231.9351340662688 149.3251525592059,242.10397154605016 150.29559323564172,252.2727874936536 150.29559323564172,258.5844555259682 150.6190734617412,260.33769517438486 151.91299436241388,262.09093418205157 155.14779661782086,264.896115263924 162.2643615771085,265.24676278373227 165.175683606416,264.896115263924 167.44004518538713,263.49352492857724 170.6748474407941,261.03899085382 173.5861694701016,254.37667775945738 174.88009037077427,245.61046223621815 175.20357059687376,234.38968301564455 175.20357059687376,223.51952814357355 174.23312992043793,220.01302132289857 172.29224856756628,216.85716299479827 169.70440676435828,214.40260508377105 162.587841803208,213.70130259310827 159.35303954780102,214.40260508377105 156.44171751849353,215.8052097586915 153.85387571528554,219.66237049968913 149.97211300767958,222.11692572245374 148.35471188090742,224.92213015444577 148.67819210886955,235.09098248556256 148.03123165667057,242.10397154605016 149.0016723331064,245.25981328310445 148.35471188090742,249.11695036571473 149.0016723331064,252.2727874936536 148.35471188090742,256.1299189431593 149.3251525592059,258.9351035072468 153.85387571528554,263.1428772797808 159.6765197739005,264.896115263924 165.175683606416,264.54546771757305 167.76352541148663,263.49352492857724 169.3809265382588,263.84417255036533 172.61572879366577,261.03899085382 175.20357059687376,255.07797430921346 175.52705082297325,244.2078662677668 174.88009037077427,237.89617933891714 174.23312992043793,235.44163218187168 173.5861694701016,227.02603240404278 173.9096496962011,224.92213015444577 171.96876834146678,218.9610687769018 170.99832766503096,217.20781402289867 167.44004518538713,214.75325629115105 165.175683606416,214.40260508377105 158.05911864712834,214.75325629115105 152.55995481275022,217.20781402289867 149.0016723331064,220.71432289201766 148.67819210886955,228.0779831823893 149.0016723331064,231.58448411384597 148.35471188090742,237.54552982142195 148.67819210886955,240.00007590372115 148.35471188090742,246.3117600674741 148.67819210886955,249.81824768520892 147.3842712044716,252.9740843512118 147.70775143243372,256.831215237733 149.0016723331064,260.33769517438486 151.5895141363144,263.1428772797808 154.17735594138503,264.896115263924 158.70607909746468,265.94805774698034 166.14612428471446,264.896115263924 169.05744631402194,263.1428772797808 171.64528811722994,260.33769517438486 174.88009037077427,253.67538110585883 175.20357059687376,248.06500419555232 174.55661014653742,244.90916430251673 175.52705082297325,243.50656813010573 174.55661014653742,241.05202383967116 174.23312992043793,229.83123396895826 171.96876834146678,218.9610687769018 168.73396608792245,216.50651194155216 164.8522033803165,215.10390747198835 162.587841803208,215.10390747198835 162.587841803208,215.10390747198835" stroke="#4DD2FF" stroke-linecap="round" stroke-linejoin="round" stroke-width="0.5"><title>2025-04-13 5.0km</title><desc>9223370292299105407</desc></polyline></svg>