<?xml version="1.0" encoding="utf-8" ?>
<svg baseProfile="full" height="200mm" version="1.1" viewBox="0,0,200,200" width="200mm" xmlns="http://www.w3.org/2000/svg" xmlns:ev="http://www.w3.org/2001/xml-events" xmlns:xlink="http://www.w3.org/1999/xlink"><defs /><rect fill="#1a1a1a" height="200" width="200" x="0" y="0" /><text alignment-baseline="middle" fill="#e1ed5e" style="dominant-baseline: central; font-size:9.0px; font-family:Arial;" text-anchor="middle" x="100.0" y="100.0">2025</text><line stroke="#e1ed5e" stroke-width="0.3" x1="100.0" x2="100.0" y1="15.0" y2="10.0" /><path d="M 100.0 14.0 a86.0,86.0 0 0,1 42.46469731375804,11.215312516191453" fill="none" id="id1" stroke="none" /><text fill="#e1ed5e" style="font-size:6.75px; font-family:Arial;" text-anchor="middle"><textPath startOffset="22.20632615414155" xlink:href="#id1">January</textPath></text><line stroke="#e1ed5e" stroke-width="0.3" x1="143.23703022742887" x2="145.7803849466894" y1="26.81831364943548" y2="22.513508569990506" /><path d="M 143.74570117128098 25.957352633546492 a86.0,86.0 0 0,1 28.547481713284135,27.462654790039103" fill="none" id="id2" stroke="none" /><text fill="#e1ed5e" style="font-size:6.75px; font-family:Arial;" text-anchor="middle"><textPath startOffset="19.985693538727396" xlink:href="#id2">February</textPath></text><line stroke="#e1ed5e" stroke-width="0.3" x1="172.23445277983987" x2="176.4835382374775" y1="55.19839476539836" y2="52.563006222186495" /><path d="M 173.08426987136738 54.67131705675599 a86.0,86.0 0 0,1 12.851231095245387,41.99856678651699" fill="none" id="id3" stroke="none" /><text fill="#e1ed5e" style="font-size:6.75px; font-family:Arial;" text-anchor="middle"><textPath startOffset="22.20632615414155" xlink:href="#id3">March</textPath></text><line stroke="#e1ed5e" stroke-width="0.3" x1="184.98032266829074" x2="189.97916517819016" y1="98.17113171792111" y2="98.06355123074" /><path d="M 185.9800911702706 98.14961562048488 a86.0,86.0 0 0,1 -9.607161424134198,41.387399972396054" fill="none" id="id4" stroke="none" /><text fill="#e1ed5e" style="font-size:6.75px; font-family:Arial;" text-anchor="middle"><textPath startOffset="21.466115282336823" xlink:href="#id4">April</textPath></text><path d="M 120.89721153311464 102.0752229133903 l 37.40857870274135 3.714904237738872 a58.59258269997905,58.59258269997905 0 0,0 -0.10830615283440334,1.0027804634591433 l -37.339090248405896 -4.358281023082807" fill="red" stroke="none" /><path d="M 120.8583938346157 102.4346265915055 l 23.713778443843758 2.7679118556405298 a44.8747696140571,44.8747696140571 0 0,0 -0.09615699550133187,0.7664658638574178 l -23.662619939095578 -3.1756954737853427" fill="red" stroke="none" /><path d="M 120.81339534386255 102.79330883721812 l 42.104052831004694 5.650669720749068 a63.48154108655928,63.48154108655928 0 0,0 -0.1546711091724961,1.0817693773089012 l -42.00054767081559 -6.374584570038379" fill="red" stroke="none" /><path d="M 120.70491114924044 103.5080841355445 l 42.08144113828534 7.129962306719878 a63.68119083121065,63.68119083121065 0 0,0 -0.1924189578246358,1.0791877022765508 l -41.952475738121514 -7.853268759729647" fill="red" stroke="none" /><path d="M 120.64145759157962 103.86396538481128 l 49.43045918099513 9.25310542549121 a71.28906695156792,71.28906695156792 0 0,0 -0.23617072218680704,1.2042294243429974 l -49.26385852583266 -10.102598576902153" fill="red" stroke="none" /><path d="M 120.5718875245553 104.21870165774334 l 37.67052419094564 7.725139594639032 a59.45446885054168,59.45446885054168 0 0,0 -0.21422283512875676,1.0007777672675395 l -37.53196731709244 -8.37243118132274" fill="red" stroke="none" /><path d="M 120.49622156327973 104.57218783832717 l 41.762718551100285 9.316204611922942 a63.78920809210694,63.78920809210694 0 0,0 -0.24829017948509624,1.0696275948640668 l -41.59616780568464 -10.033700864135573" fill="red" stroke="none" /><path d="M 120.41448212921028 104.9243191809786 l 49.06107932235638 11.834364076319478 a71.4682244324627,71.4682244324627 0 0,0 -0.2987667377424534,1.193424603626834 l -48.85010127031886 -12.677116519343707" fill="red" stroke="none" /><path d="M 120.32669344350535 105.2749913415812 l 39.131859631273436 10.155130312200018 a61.428073288983875,61.428073288983875 0 0,0 -0.27441360580275564,1.0211951115591043 l -38.95125794912891 -10.82721635693467" fill="red" stroke="none" /><path d="M 119.79798401119884 107.00284435728193 l 51.10507938518798 18.07663429764218 a75.20787624042339,75.20787624042339 0 0,0 -0.44220705223874895,1.2167638873892426 l -50.786348071944 -18.953645982037553" fill="red" stroke="none" /><path d="M 119.67450827220406 107.3425965602758 l 31.09515944427703 11.604824253693945 a54.19007211236719,54.19007211236719 0 0,0 -0.33367077682711704,0.8711091074641732 l -30.890794387856406 -12.13835692799126" fill="red" stroke="none" /><path d="M 119.41010516605496 108.01547362559984 l 47.39652324119536 19.57256690444535 a72.27880449642095,72.27880449642095 0 0,0 -0.4847808901863724,1.1458788224406466 l -47.05259136981668 -20.38552025255216" fill="red" stroke="none" /><path d="M 119.12269723197855 108.67885076344098 l 45.54189251343844 20.669222746874368 a71.01280578677314,71.01280578677314 0 0,0 -0.5147595985795326,1.1087463801766022 l -45.179358298019075 -21.450089194329802" fill="red" stroke="none" /><path d="M 118.97047184881838 109.00673069616215 l 48.955052016364476 23.242699140109636 a75.19243656860803,75.19243656860803 0 0,0 -0.5651848209314021,1.1644481333329437 l -48.54771393881836 -24.081936229407855" fill="red" stroke="none" /><line stroke="#e1ed5e" stroke-width="0.3" x1="174.80103733775053" x2="179.2010983576182" y1="140.37084112569926" y2="142.7455964860345" /><path d="M 175.68104954172406 140.8457921977663 a86.0,86.0 0 0,1 -30.038265399797805,32.042727171017184" fill="none" id="id5" stroke="none" /><text fill="#e1ed5e" style="font-size:6.75px; font-family:Arial;" text-anchor="middle"><textPath startOffset="22.206326154141568" xlink:href="#id5">May</textPath></text><path d="M 117.94076556474637 110.91462005526583 l 26.11323475389394 15.886503545465882 a51.56602728867581,51.56602728867581 0 0,0 -0.4678643614447383,0.7543463219047442 l -25.83590575278124 -16.3336461987359" fill="red" stroke="none" /><path d="M 116.27256486870786 113.27417163493432 l 24.69467566783297 20.144418899457783 a52.8688659844729,52.8688659844729 0 0,0 -0.5813158398527128,0.7002323772734207 l -24.344263828086717 -20.566512533844975" fill="red" stroke="none" /><path d="M 116.0416608686014 113.55231037782055 l 30.701610725425898 25.937324137327444 a61.19121402172837,61.19121402172837 0 0,0 -0.6866746634608515,0.7987577663554268 l -30.250593552394268 -26.4619590028444" fill="red" stroke="none" /><path d="M 115.80600337817218 113.82643327865902 l 30.401805302942535 26.594232742757175 a61.39211533027161,61.39211533027161 0 0,0 -0.7026215057618744,0.7894027101629081 l -29.93952494753232 -27.113609622660952" fill="red" stroke="none" /><path d="M 115.32070863581623 114.36230785411682 l 29.243115451183403 27.41378592250738 a61.083356395096274,61.083356395096274 0 0,0 -0.725709392398112,0.7609033965815042 l -28.76689950740633 -27.91309643567139" fill="red" stroke="none" /><path d="M 114.81725581225074 114.88116024355365 l 28.399128466198796 28.52160932075962 a61.24913285880461,61.24913285880461 0 0,0 -0.753510304333975,0.7374684256871646 l -27.903968209489026 -29.006227849369356" fill="red" stroke="none" /><path d="M 114.29624159901734 115.38237550388516 l 27.64773465989806 29.748226722718854 a61.61224230414288,61.61224230414288 0 0,0 -0.7830635823491657,0.7153100162176272 l -27.13157152808203 -30.219729505523066" fill="red" stroke="none" /><path d="M 114.0293411484842 115.62618273729858 l 27.650540628833575 30.797768482373474 a62.38906788707198,62.38906788707198 0 0,0 -0.8052873307533761,0.7105724402373935 l -27.116310945173613 -31.26916406438316" fill="red" stroke="none" /><path d="M 113.75828350139079 115.86535959552629 l 41.27485050417237 47.59607878657886 a84.0,84.0 0 0,0 -1.100538093691811,0.9379024391082127 l -40.449446933903516 -48.299505615910014" fill="red" stroke="none" /><path d="M 112.63410532772338 116.77436683061366 l 32.021866988705675 42.51559802109543 a74.2257084549725,74.2257084549725 0 0,0 -1.0271955456354693,0.7598947078838808 l -31.28528647265164 -43.06050267771908" fill="red" stroke="none" /><path d="M 112.34349029814194 116.9893568818739 l 17.79194859000492 24.488516369235356 a51.26947090049124,51.26947090049124 0 0,0 -0.71843829531721,0.512586647988998 l -17.367782966838828 -24.79114727906857" fill="red" stroke="none" /><path d="M 112.04921762599082 117.19931262002967 l 17.29401854407013 24.685854354099053 a51.14091044733773,51.14091044733773 0 0,0 -0.7253318138503432,0.498889835494858 l -16.866529845596904 -24.979884978959007" fill="red" stroke="none" /><line stroke="#e1ed5e" stroke-width="0.3" x1="143.8653032363475" x2="146.44561519142675" y1="172.8068346515853" y2="177.08958963109032" /><path d="M 144.38136562736335 173.6633856474863 a86.0,86.0 0 0,1 -40.68145358897372,12.25698825130547" fill="none" id="id6" stroke="none" /><text fill="#e1ed5e" style="font-size:6.75px; font-family:Arial;" text-anchor="middle"><textPath startOffset="21.466115282336833" xlink:href="#id6">June</textPath></text><line stroke="#e1ed5e" stroke-width="0.3" x1="102.19456741930631" x2="102.32365962044197" y1="184.97166512339345" y2="189.96999836594603" /><path d="M 102.22038585953345 185.97133177190398 a86.0,86.0 0 0,1 -42.740103519485714,-10.115201625700543" fill="none" id="id7" stroke="none" /><text fill="#e1ed5e" style="font-size:6.75px; font-family:Arial;" text-anchor="middle"><textPath startOffset="22.20632615414155" xlink:href="#id7">July</textPath></text><line stroke="#e1ed5e" stroke-width="0.3" x1="58.666819895761336" x2="56.23545636021788" y1="174.27360380694188" y2="178.64263932499728" /><path d="M 58.180547188652646 175.14741091055294 a86.0,86.0 0 0,1 -31.652253787137756,-30.449443065178592" fill="none" id="id8" stroke="none" /><text fill="#e1ed5e" style="font-size:6.75px; font-family:Arial;" text-anchor="middle"><textPath startOffset="22.20632615414155" xlink:href="#id8">August</textPath></text><line stroke="#e1ed5e" stroke-width="0.3" x1="26.63291911575756" x2="22.317208475507996" y1="142.92168965132927" y2="145.44649492493687" /><path d="M 25.769776987707644 143.4266507060508 a86.0,86.0 0 0,1 -11.730757126820373,-40.83630448921669" fill="none" id="id9" stroke="none" /><text fill="#e1ed5e" style="font-size:6.75px; font-family:Arial;" text-anchor="middle"><textPath startOffset="21.46611528233685" xlink:href="#id9">September</textPath></text><line stroke="#e1ed5e" stroke-width="0.3" x1="15.007084014347285" x2="10.007500721073583" y1="101.09737516637583" y2="101.16192664675087" /><path d="M 14.007167355692545 101.11028546245083 a86.0,86.0 0 0,1 10.666146001902534,-42.60595125391555" fill="none" id="id10" stroke="none" /><text fill="#e1ed5e" style="font-size:6.75px; font-family:Arial;" text-anchor="middle"><textPath startOffset="22.20632615414155" xlink:href="#id10">October</textPath></text><line stroke="#e1ed5e" stroke-width="0.3" x1="26.266209847984243" x2="21.928928074336255" y1="57.711370442889674" y2="55.22380399835377" /><path d="M 25.398753493254645 57.213857153982495 a86.0,86.0 0 0,1 29.58750427330803,-30.492523968695096" fill="none" id="id11" stroke="none" /><text fill="#e1ed5e" style="font-size:6.75px; font-family:Arial;" text-anchor="middle"><textPath startOffset="21.46611528233685" xlink:href="#id11">November</textPath></text><line stroke="#e1ed5e" stroke-width="0.3" x1="56.762969772571076" x2="54.21961505331055" y1="26.818313649435495" y2="22.513508569990535" /><path d="M 56.25429882871897 25.957352633546506 a86.0,86.0 0 0,1 42.265352541879196,-11.944610805530505" fill="none" id="id12" stroke="none" /><text fill="#e1ed5e" style="font-size:6.75px; font-family:Arial;" text-anchor="middle"><textPath startOffset="22.20632615414155" xlink:href="#id12">December</textPath></text></svg>