<?xml version="1.0" encoding="utf-8" ?>
<svg baseProfile="full" height="200mm" version="1.1" viewBox="0,0,200,200" width="200mm" xmlns="http://www.w3.org/2000/svg" xmlns:ev="http://www.w3.org/2001/xml-events" xmlns:xlink="http://www.w3.org/1999/xlink"><defs /><rect fill="#1a1a1a" height="200" width="200" x="0" y="0" /><text alignment-baseline="middle" fill="#e1ed5e" style="dominant-baseline: central; font-size:9.0px; font-family:Arial;" text-anchor="middle" x="100.0" y="100.0">2025</text><line stroke="#e1ed5e" stroke-width="0.3" x1="100.0" x2="100.0" y1="15.0" y2="10.0" /><path d="M 100.0 14.0 a86.0,86.0 0 0,1 42.46469731375804,11.215312516191453" fill="none" id="id1" stroke="none" /><text fill="#e1ed5e" style="font-size:6.75px; font-family:Arial;" text-anchor="middle"><textPath startOffset="22.20632615414155" xlink:href="#id1">January</textPath></text><line stroke="#e1ed5e" stroke-width="0.3" x1="143.23703022742887" x2="145.7803849466894" y1="26.81831364943548" y2="22.513508569990506" /><path d="M 143.74570117128098 25.957352633546492 a86.0,86.0 0 0,1 28.547481713284135,27.462654790039103" fill="none" id="id2" stroke="none" /><text fill="#e1ed5e" style="font-size:6.75px; font-family:Arial;" text-anchor="middle"><textPath startOffset="19.985693538727396" xlink:href="#id2">February</textPath></text><line stroke="#e1ed5e" stroke-width="0.3" x1="172.23445277983987" x2="176.4835382374775" y1="55.19839476539836" y2="52.563006222186495" /><path d="M 173.08426987136738 54.67131705675599 a86.0,86.0 0 0,1 12.851231095245387,41.99856678651699" fill="none" id="id3" stroke="none" /><text fill="#e1ed5e" style="font-size:6.75px; font-family:Arial;" text-anchor="middle"><textPath startOffset="22.20632615414155" xlink:href="#id3">March</textPath></text><line stroke="#e1ed5e" stroke-width="0.3" x1="184.98032266829074" x2="189.97916517819016" y1="98.17113171792111" y2="98.06355123074" /><path d="M 185.9800911702706 98.14961562048488 a86.0,86.0 0 0,1 -9.607161424134198,41.387399972396054" fill="none" id="id4" stroke="none" /><text fill="#e1ed5e" style="font-size:6.75px; font-family:Arial;" text-anchor="middle"><textPath startOffset="21.466115282336823" xlink:href="#id4">April</textPath></text><path d="M 120.89721153311464 102.0752229133903 l 23.511806141693146 2.3348683992174775 a44.62745518430252,44.62745518430252 0 0,0 -0.08249214762474164,0.7637748351504743 l -23.468131692567354 -2.739239556252743" fill="red" stroke="none" /><path d="M 120.8583938346157 102.4346265915055 l 14.904435853850229 1.7396706644282438 a36.00562101821209,36.00562101821209 0 0,0 -0.0771523144975956,0.6149798573852041 l -14.872282030105785 -1.9959682761008428" fill="red" stroke="none" /><path d="M 120.81339534386255 102.79330883721812 l 26.462976201489436 3.551523625121087 a47.70023276116501,47.70023276116501 0 0,0 -0.11622036552161953,0.8128449657700629 l -26.397921784951215 -4.006514062871559" fill="red" stroke="none" /><path d="M 120.70491114924044 103.5080841355445 l 26.44876444166885 4.4812793580124 a47.82571537117761,47.82571537117761 0 0,0 -0.14451008514164607,0.8104893015891529 l -26.367707914188017 -4.935887410334771" fill="red" stroke="none" /><path d="M 120.64145759157962 103.86396538481128 l 31.067723342113133 5.815704004730218 a52.6073701331306,52.6073701331306 0 0,0 -0.17428086981599722,0.888654400465898 l -30.963012539321472 -6.349622132264061" fill="red" stroke="none" /><path d="M 120.5718875245553 104.21870165774334 l 23.67644248319359 4.855356468097002 a45.16916248222651,45.16916248222651 0 0,0 -0.16275086186807092,0.7603178440958439 l -23.589357582601075 -5.262188131609014" fill="red" stroke="none" /><path d="M 120.49622156327973 104.57218783832717 l 26.24844291268425 5.855362711116 a47.89360570505881,47.89360570505881 0 0,0 -0.18641886789889303,0.803087603873371 l -26.143763478854805 -6.3063189723379365" fill="red" stroke="none" /><path d="M 120.41448212921028 104.9243191809786 l 30.83556302140242 7.438060563157689 a52.719973073571204,52.719973073571204 0 0,0 -0.22039129269183794,0.8803536602200154 l -30.70296041441552 -7.9677420627751" fill="red" stroke="none" /><path d="M 120.32669344350535 105.2749913415812 l 24.59491190310916 6.382639050293071 a46.40960001196451,46.40960001196451 0 0,0 -0.2073225644443366,0.7715243881844283 l -24.481401262323047 -6.805054371653047" fill="red" stroke="none" /><path d="M 119.79798401119884 107.00284435728193 l 32.12024516912014 11.361413238330243 a55.07039566099125,55.07039566099125 0 0,0 -0.32380275242740236,0.8909661069317036 l -31.919918155687512 -11.912627142268079" fill="red" stroke="none" /><path d="M 119.67450827220406 107.3425965602758 l 19.543735318265497 7.2937916281025705 a41.86041673851693,41.86041673851693 0 0,0 -0.2577519687090457,0.672909055879367 l -19.415289069962945 -7.629124250815082" fill="red" stroke="none" /><path d="M 119.41010516605496 108.01547362559984 l 29.789366634118505 12.301627453141254 a53.22943379052464,53.22943379052464 0 0,0 -0.3570149295754453,0.8438778330110457 l -29.57320072335075 -12.812579811818464" fill="red" stroke="none" /><path d="M 119.12269723197855 108.67885076344098 l 28.623705717622563 12.990890730857197 a52.4337361920299,52.4337361920299 0 0,0 -0.380083122969093,0.8186652330934432 l -28.39584797781364 -13.48167603122947" fill="red" stroke="none" /><path d="M 118.97047184881838 109.00673069616215 l 30.76892340154366 14.60835603336914 a55.06069161493544,55.06069161493544 0 0,0 -0.4138643266647175,0.8526830954936743 l -30.51290581826423 -15.135828084828088" fill="red" stroke="none" /><line stroke="#e1ed5e" stroke-width="0.3" x1="174.80103733775053" x2="179.2010983576182" y1="140.37084112569926" y2="142.7455964860345" /><path d="M 175.68104954172406 140.8457921977663 a86.0,86.0 0 0,1 -30.038265399797805,32.042727171017184" fill="none" id="id5" stroke="none" /><text fill="#e1ed5e" style="font-size:6.75px; font-family:Arial;" text-anchor="middle"><textPath startOffset="22.206326154141568" xlink:href="#id5">May</textPath></text><path d="M 117.94076556474637 110.91462005526583 l 16.41252714102945 9.984885942831683 a40.21116848206756,40.21116848206756 0 0,0 -0.36484045124299985,0.5882389751323924 l -16.238222050118488 -10.265921249329349" fill="red" stroke="none" /><path d="M 116.27256486870786 113.27417163493432 l 15.520943248012985 12.661044295874376 a41.0300205184651,41.0300205184651 0 0,0 -0.4511426601030278,0.5434303965524803 l -15.300704588016414 -12.926335949540627" fill="red" stroke="none" /><path d="M 116.0416608686014 113.55231037782055 l 19.29638453655131 16.30196489946869 a46.260730705305534,46.260730705305534 0 0,0 -0.5191279858778247,0.603863128373606 l -19.01291404110271 -16.631705127003823" fill="red" stroke="none" /><path d="M 115.80600337817218 113.82643327865902 l 19.107952705722607 16.71484099151177 a46.386999940435146,46.386999940435146 0 0,0 -0.530890710811745,0.5964613415307799 l -18.817403145262524 -17.041276502783415" fill="red" stroke="none" /><path d="M 115.32070863581623 114.36230785411682 l 18.37970020007712 17.229941435134958 a46.1929407037546,46.1929407037546 0 0,0 -0.5488017180060352,0.5754164072489732 l -18.08039193069212 -17.543764958966438" fill="red" stroke="none" /><path d="M 114.81725581225074 114.88116024355365 l 17.849242773860706 17.926223675257315 a46.2971334908834,46.2971334908834 0 0,0 -0.5695650782016161,0.5574393065785624 l -17.538027743283294 -18.23081308475845" fill="red" stroke="none" /><path d="M 114.29624159901734 115.38237550388516 l 17.37698143374951 18.697169580314636 a46.52535277060668,46.52535277060668 0 0,0 -0.5913160769375244,0.5401532163135653 l -17.052565807345122 -18.993515563214782" fill="red" stroke="none" /><path d="M 114.0293411484842 115.62618273729858 l 17.378745023811984 19.35682100911384 a47.013598332055885,47.013598332055885 0 0,0 -0.6068283497753257,0.5354554639543185 l -17.04297432113007 -19.65309961484045" fill="red" stroke="none" /><path d="M 113.75828350139079 115.86535959552629 l 25.94181113623413 29.914790038595847 a60.59636634946841,60.59636634946841 0 0,0 -0.7939120179392211,0.6765890452412053 l -25.42303364171786 -30.356903474059997" fill="red" stroke="none" /><path d="M 112.63410532772338 116.77436683061366 l 20.126183753630777 26.721638012857603 a54.453089701477616,54.453089701477616 0 0,0 -0.7535660130664519,0.5574701212475537 l -19.663232770145758 -27.064118082844924" fill="red" stroke="none" /><path d="M 112.34349029814194 116.9893568818739 l 11.182484356202268 15.391369293828527 a40.024778713974996,40.024778713974996 0 0,0 -0.5608665992580242,0.40016342663878096 l -10.91589042909536 -15.581576982311528" fill="red" stroke="none" /><path d="M 112.04921762599082 117.19931262002967 l 10.869528475007955 15.515398931024224 a39.943976701258805,39.943976701258805 0 0,0 -0.5665256410120899,0.38966150174471187 l -10.600845949372983 -15.70020122213403" fill="red" stroke="none" /><path d="M 111.45004920935366 117.60387380957326 l 17.272584217323367 26.555728046879814 a52.67883927236551,52.67883927236551 0 0,0 -0.7643905225397432,0.4878701973707036 l -16.812911892736693 -26.849112673074327" fill="red" stroke="none" /><path d="M 111.1453310114006 117.79835938074945 l 33.4359930342018 53.39507814224836 a84.0,84.0 0 0,0 -1.2320832002707651,0.7568461326864875 l -32.51193063399873 -53.96271274176323" fill="red" stroke="none" /><line stroke="#e1ed5e" stroke-width="0.3" x1="143.8653032363475" x2="146.44561519142675" y1="172.8068346515853" y2="177.08958963109032" /><path d="M 144.38136562736335 173.6633856474863 a86.0,86.0 0 0,1 -40.68145358897372,12.25698825130547" fill="none" id="id6" stroke="none" /><text fill="#e1ed5e" style="font-size:6.75px; font-family:Arial;" text-anchor="middle"><textPath startOffset="21.466115282336833" xlink:href="#id6">June</textPath></text><line stroke="#e1ed5e" stroke-width="0.3" x1="102.19456741930631" x2="102.32365962044197" y1="184.97166512339345" y2="189.96999836594603" /><path d="M 102.22038585953345 185.97133177190398 a86.0,86.0 0 0,1 -42.740103519485714,-10.115201625700543" fill="none" id="id7" stroke="none" /><text fill="#e1ed5e" style="font-size:6.75px; font-family:Arial;" text-anchor="middle"><textPath startOffset="22.20632615414155" xlink:href="#id7">July</textPath></text><line stroke="#e1ed5e" stroke-width="0.3" x1="58.666819895761336" x2="56.23545636021788" y1="174.27360380694188" y2="178.64263932499728" /><path d="M 58.180547188652646 175.14741091055294 a86.0,86.0 0 0,1 -31.652253787137756,-30.449443065178592" fill="none" id="id8" stroke="none" /><text fill="#e1ed5e" style="font-size:6.75px; font-family:Arial;" text-anchor="middle"><textPath startOffset="22.20632615414155" xlink:href="#id8">August</textPath></text><line stroke="#e1ed5e" stroke-width="0.3" x1="26.63291911575756" x2="22.317208475507996" y1="142.92168965132927" y2="145.44649492493687" /><path d="M 25.769776987707644 143.4266507060508 a86.0,86.0 0 0,1 -11.730757126820373,-40.83630448921669" fill="none" id="id9" stroke="none" /><text fill="#e1ed5e" style="font-size:6.75px; font-family:Arial;" text-anchor="middle"><textPath startOffset="21.46611528233685" xlink:href="#id9">September</textPath></text><line stroke="#e1ed5e" stroke-width="0.3" x1="15.007084014347285" x2="10.007500721073583" y1="101.09737516637583" y2="101.16192664675087" /><path d="M 14.007167355692545 101.11028546245083 a86.0,86.0 0 0,1 10.666146001902534,-42.60595125391555" fill="none" id="id10" stroke="none" /><text fill="#e1ed5e" style="font-size:6.75px; font-family:Arial;" text-anchor="middle"><textPath startOffset="22.20632615414155" xlink:href="#id10">October</textPath></text><line stroke="#e1ed5e" stroke-width="0.3" x1="26.266209847984243" x2="21.928928074336255" y1="57.711370442889674" y2="55.22380399835377" /><path d="M 25.398753493254645 57.213857153982495 a86.0,86.0 0 0,1 29.58750427330803,-30.492523968695096" fill="none" id="id11" stroke="none" /><text fill="#e1ed5e" style="font-size:6.75px; font-family:Arial;" text-anchor="middle"><textPath startOffset="21.46611528233685" xlink:href="#id11">November</textPath></text><line stroke="#e1ed5e" stroke-width="0.3" x1="56.762969772571076" x2="54.21961505331055" y1="26.818313649435495" y2="22.513508569990535" /><path d="M 56.25429882871897 25.957352633546506 a86.0,86.0 0 0,1 42.265352541879196,-11.944610805530505" fill="none" id="id12" stroke="none" /><text fill="#e1ed5e" style="font-size:6.75px; font-family:Arial;" text-anchor="middle"><textPath startOffset="22.20632615414155" xlink:href="#id12">December</textPath></text></svg>